<svg xmlns="http://www.w3.org/2000/svg" width="178.17" height="15" viewBox="0 0 178.17 15">
  <defs>
    <style>
      .cls-1 {
        fill: #373d43;
      }
    </style>
  </defs>
  <title>ew_c</title>
  <g id="Layer_2" data-name="Layer 2">
    <g id="Layer_1-2" data-name="Layer 1">
      <g>
        <polygon class="cls-1" points="168.73 0.57 168.73 2.69 176.47 7.49 168.73 12.3 168.73 14.41 178.16 8.56 178.16 8.54 178.16 6.44 178.16 6.43 168.73 0.57"/>
        <polygon class="cls-1" points="0 6.44 0 8.54 0 8.56 9.43 14.41 9.43 12.3 1.69 7.49 9.43 2.69 9.43 0.57 0 6.43 0 6.44"/>
        <path class="cls-1" d="M28.88,10.67V0H24.34V1.81h2.73v8.86c0,3,2.19,4.32,4.89,4.32V13.18C30.26,13.18,28.88,12.62,28.88,10.67Z"/>
        <path class="cls-1" d="M37,10.67V0H32.43V1.81h2.73v8.86c0,3,2.19,4.32,4.89,4.32V13.18C38.35,13.18,37,12.62,37,10.67Z"/>
        <path class="cls-1" d="M54.1,4.28a5.14,5.14,0,0,0-4.89,5.35,4.91,4.91,0,1,0,9.78,0A5.14,5.14,0,0,0,54.1,4.28Zm0,8.9A3.35,3.35,0,0,1,51,9.63a3.11,3.11,0,1,1,6.16,0A3.34,3.34,0,0,1,54.1,13.18Z"/>
        <path class="cls-1" d="M117.3,4.28a4.64,4.64,0,0,0-3.08,1.2V0h-1.81V15h1.81v-1.2A4.64,4.64,0,0,0,117.3,15a5.14,5.14,0,0,0,4.89-5.36A5.14,5.14,0,0,0,117.3,4.28Zm0,8.9a3.35,3.35,0,0,1-3.08-3.55,3.11,3.11,0,1,1,6.16,0A3.34,3.34,0,0,1,117.3,13.18Z"/>
        <path class="cls-1" d="M130.28,4.28a4.6,4.6,0,0,0-3.08,1.2V0h-1.81V15h1.81v-1.2a4.6,4.6,0,0,0,3.08,1.2,5.14,5.14,0,0,0,4.89-5.36A5.14,5.14,0,0,0,130.28,4.28Zm0,8.9a3.34,3.34,0,0,1-3.08-3.55,3.11,3.11,0,1,1,6.15,0A3.34,3.34,0,0,1,130.28,13.18Z"/>
        <polygon class="cls-1" points="157.64 14.99 159.45 14.99 165.67 0 163.86 0 157.64 14.99"/>
        <polygon class="cls-1" points="92.03 12.68 90.2 8.75 90.16 8.75 88.39 8.75 88.35 8.75 86.51 12.67 84.11 4.78 82.3 4.78 85.41 14.99 85.43 14.99 87.22 14.99 87.24 14.99 89.27 10.65 91.3 14.99 91.33 14.99 93.11 14.99 93.14 14.99 96.25 4.78 94.44 4.78 92.03 12.68"/>
        <path class="cls-1" d="M17.39,4.29A5.14,5.14,0,0,0,12.5,9.65,5.13,5.13,0,0,0,17.39,15a4.85,4.85,0,0,0,4.32-2.86H19.57a2.88,2.88,0,0,1-2.18,1,3.26,3.26,0,0,1-3.05-3.08h7.91a3.62,3.62,0,0,0,0-.46A5.13,5.13,0,0,0,17.39,4.29Zm-2.85,4A3.12,3.12,0,0,1,17.39,6.1a3.11,3.11,0,0,1,2.84,2.19Z"/>
        <path class="cls-1" d="M104.33,4.29a5.14,5.14,0,0,0-4.89,5.36A5.14,5.14,0,0,0,104.33,15a4.84,4.84,0,0,0,4.32-2.86h-2.14a2.88,2.88,0,0,1-2.18,1,3.27,3.27,0,0,1-3-3.08h7.92c0-.16,0-.31,0-.46A5.14,5.14,0,0,0,104.33,4.29Zm-2.84,4a2.94,2.94,0,0,1,5.68,0Z"/>
        <path class="cls-1" d="M143.25,4.29a5.14,5.14,0,0,0-4.89,5.36A5.14,5.14,0,0,0,143.25,15a4.84,4.84,0,0,0,4.32-2.86h-2.14a2.88,2.88,0,0,1-2.18,1,3.27,3.27,0,0,1-3.05-3.08h7.92c0-.16,0-.31,0-.46A5.14,5.14,0,0,0,143.25,4.29Zm-2.84,4a2.94,2.94,0,0,1,5.68,0Z"/>
        <rect class="cls-1" x="70.5" y="13.18" width="10.21" height="1.81"/>
        <path class="cls-1" d="M153.14,4.78h-1.81V15h1.81V9.1c0-1.95,1.38-2.51,3.08-2.51V4.78a5.85,5.85,0,0,0-3.08.78Z"/>
        <path class="cls-1" d="M64.14,10.67V6.59h2.62V4.78H64.14V0H62.33V4.78H60.59V6.59h1.74v4.08c0,3,2.19,4.32,4.89,4.32V13.18C65.52,13.18,64.14,12.62,64.14,10.67Z"/>
        <polygon class="cls-1" points="41.59 4.78 41.59 6.59 44.21 6.59 44.21 14.99 46.02 14.99 46.02 6.59 46.02 4.78 44.21 4.78 41.59 4.78"/>
        <rect class="cls-1" x="43.62" width="2.4" height="2.4"/>
      </g>
    </g>
  </g>
</svg>
