<?xml version="1.0" encoding="utf-8"?>
<!-- Generator: Adobe Illustrator 23.0.2, SVG Export Plug-In . SVG Version: 6.00 Build 0)  -->
<svg version="1.1" id="Layer_1" xmlns="http://www.w3.org/2000/svg" xmlns:xlink="http://www.w3.org/1999/xlink" x="0px" y="0px"
	 viewBox="0 0 142.46 62.03" style="enable-background:new 0 0 142.46 62.03;" xml:space="preserve">
<style type="text/css">
	.st0{fill:#FFFFFF;}
</style>
<g>
	<polygon class="st0" points="23.04,7.08 15.32,7.08 15.32,25.25 8.32,25.25 8.32,7.08 0.6,7.08 0,7.08 0,0.71 23.64,0.71 
		23.64,7.08 	"/>
	<polygon class="st0" points="80.94,43.85 73.21,43.85 73.21,62.03 66.21,62.03 66.21,43.85 58.49,43.85 57.89,43.85 57.89,37.48 
		81.53,37.48 81.53,43.85 	"/>
	<polygon class="st0" points="31.08,25.25 31.08,0.71 50.56,0.71 50.56,6.85 37.57,6.85 37.57,10.06 46.37,10.06 46.37,15.56 
		37.57,15.56 37.57,19.07 50.56,19.07 50.56,25.25 	"/>
	<polygon class="st0" points="31.08,43.71 31.08,19.17 50.56,19.17 50.56,25.31 37.57,25.31 37.57,28.51 46.37,28.51 46.37,34.02 
		37.57,34.02 37.57,37.53 50.56,37.53 50.56,43.71 	"/>
	<polygon class="st0" points="31.08,62.03 31.08,37.48 50.56,37.48 50.56,43.63 37.57,43.63 37.57,46.83 46.37,46.83 46.37,52.34 
		37.57,52.34 37.57,55.84 50.56,55.84 50.56,62.03 	"/>
	<path class="st0" d="M73.31,25.25l-3.88-7.49h-4.36v7.49h-7.19V0.71H70.7c0.57,0,1.16,0.08,1.77,0.24c0.61,0.16,1.2,0.39,1.77,0.67
		c0.57,0.29,1.1,0.63,1.58,1.03c0.48,0.4,0.9,0.84,1.25,1.34c0.42,0.62,0.74,1.29,0.97,2.01c0.22,0.72,0.34,1.45,0.34,2.2
		c0,1.19-0.27,2.32-0.82,3.37c-0.55,1.06-1.29,1.94-2.24,2.66l5.74,11.02H73.31z M68.69,6.44h-3.61v4.69h3.61
		c0.65,0,1.2-0.23,1.68-0.69c0.47-0.46,0.71-1.02,0.71-1.67c0-0.65-0.24-1.2-0.71-1.65C69.9,6.67,69.34,6.44,68.69,6.44"/>
	<path class="st0" d="M129.43,26c-1.79,0-3.48-0.34-5.06-1.02c-1.59-0.68-2.97-1.61-4.15-2.78c-1.18-1.17-2.11-2.54-2.79-4.13
		c-0.68-1.59-1.02-3.28-1.02-5.06c0-1.79,0.34-3.47,1.02-5.05c0.68-1.58,1.61-2.95,2.79-4.13c1.18-1.18,2.56-2.11,4.15-2.79
		c1.59-0.68,3.28-1.03,5.06-1.03c1.79,0,3.48,0.34,5.07,1.03c1.59,0.68,2.97,1.61,4.15,2.77c1.18,1.17,2.11,2.54,2.79,4.13
		c0.68,1.59,1.02,3.28,1.02,5.07c0,1.79-0.34,3.48-1.02,5.06c-0.68,1.59-1.61,2.97-2.79,4.13c-1.18,1.17-2.56,2.09-4.15,2.78
		C132.9,25.66,131.22,26,129.43,26 M129.45,6.74c-0.84,0-1.63,0.17-2.36,0.5c-0.73,0.34-1.36,0.79-1.9,1.36
		c-0.53,0.57-0.95,1.23-1.26,1.99c-0.31,0.76-0.46,1.55-0.46,2.4c0,0.84,0.16,1.64,0.46,2.39s0.73,1.42,1.26,2.01
		c0.53,0.58,1.16,1.04,1.9,1.37c0.73,0.34,1.52,0.5,2.36,0.5c0.84,0,1.63-0.17,2.36-0.5c0.73-0.33,1.36-0.79,1.9-1.37
		c0.53-0.58,0.94-1.25,1.24-2.01c0.3-0.76,0.44-1.55,0.44-2.39c0-0.84-0.15-1.64-0.44-2.4c-0.3-0.76-0.71-1.42-1.24-1.99
		c-0.53-0.57-1.17-1.02-1.9-1.36C131.07,6.91,130.29,6.74,129.45,6.74"/>
	<polygon class="st0" points="16.75,62.03 16.75,50.56 12.98,57.93 11.01,57.93 6.93,50.56 6.93,62.03 0,62.03 0,37.48 6.18,37.48 
		11.98,46.87 17.46,37.48 23.64,37.48 23.64,62.03 	"/>
	<polygon class="st0" points="103.65,25.27 103.65,13.8 99.89,21.17 97.91,21.17 93.83,13.8 93.83,25.27 86.9,25.27 86.9,0.73 
		93.09,0.73 98.88,10.11 104.36,0.73 110.55,0.73 110.55,25.27 	"/>
	<path class="st0" d="M104.46,62.03l-3.88-7.49h-4.36v7.49h-7.19V37.48h12.81c0.57,0,1.16,0.08,1.77,0.24
		c0.61,0.16,1.2,0.39,1.77,0.67c0.57,0.29,1.1,0.63,1.58,1.03c0.48,0.4,0.9,0.84,1.25,1.34c0.42,0.62,0.75,1.29,0.97,2.01
		c0.22,0.72,0.33,1.45,0.33,2.2c0,1.19-0.27,2.32-0.82,3.37c-0.55,1.06-1.29,1.94-2.24,2.66l5.74,11.03H104.46z M99.84,43.22h-3.61
		v4.69h3.61c0.65,0,1.2-0.23,1.68-0.69c0.47-0.46,0.71-1.02,0.71-1.67c0-0.65-0.24-1.2-0.71-1.65
		C101.04,43.44,100.48,43.22,99.84,43.22"/>
	<polygon class="st0" points="139.15,43.85 139.15,37.48 133.02,37.48 125.83,37.48 119.71,37.48 119.71,43.85 125.83,43.85 
		125.83,55.66 119.71,55.66 119.71,62.03 125.83,62.03 133.02,62.03 139.15,62.03 139.15,55.66 133.02,55.66 133.02,43.85 	"/>
</g>
</svg>
