<svg xmlns="http://www.w3.org/2000/svg" width="285" height="152" viewBox="0 0 285 152">
  <defs>
    <style>
      .cls-1 {
        fill: #fff;
      }

      .cls-2 {
        fill: #192e46;
      }
    </style>
  </defs>
  <title>Asset 5</title>
  <g id="Layer_2" data-name="Layer 2">
    <g id="Layer_1-2" data-name="Layer 1">
      <g>
        <rect class="cls-1" width="285" height="152"/>
        <g>
          <polygon class="cls-2" points="123.18 52 115.46 52 115.46 70.17 108.46 70.17 108.46 52 100.73 52 100.14 52 100.14 45.63 123.78 45.63 123.78 52 123.18 52"/>
          <polygon class="cls-2" points="181.07 88.77 173.35 88.77 173.35 106.95 166.35 106.95 166.35 88.77 158.63 88.77 158.03 88.77 158.03 82.4 181.67 82.4 181.67 88.77 181.07 88.77"/>
          <polygon class="cls-2" points="131.22 70.17 131.22 45.63 150.7 45.63 150.7 51.77 137.7 51.77 137.7 54.98 146.51 54.98 146.51 60.48 137.7 60.48 137.7 63.99 150.7 63.99 150.7 70.17 131.22 70.17"/>
          <polygon class="cls-2" points="131.22 88.63 131.22 64.09 150.7 64.09 150.7 70.23 137.7 70.23 137.7 73.43 146.51 73.43 146.51 78.94 137.7 78.94 137.7 82.45 150.7 82.45 150.7 88.63 131.22 88.63"/>
          <polygon class="cls-2" points="131.22 106.95 131.22 82.4 150.7 82.4 150.7 88.55 137.7 88.55 137.7 91.75 146.51 91.75 146.51 97.26 137.7 97.26 137.7 100.76 150.7 100.76 150.7 106.95 131.22 106.95"/>
          <path class="cls-2" d="M173.45,70.17l-3.87-7.48h-4.36v7.48H158V45.63h12.81a7,7,0,0,1,1.77.24,9.47,9.47,0,0,1,1.77.67,8.42,8.42,0,0,1,1.58,1,6.34,6.34,0,0,1,1.25,1.34,7.55,7.55,0,0,1,1.31,4.21,7.32,7.32,0,0,1-.82,3.37,8,8,0,0,1-2.24,2.66l5.74,11Zm-4.62-18.81h-3.61v4.7h3.61a2.29,2.29,0,0,0,1.68-.7,2.26,2.26,0,0,0,.71-1.67,2.2,2.2,0,0,0-.71-1.65,2.35,2.35,0,0,0-1.68-.68"/>
          <path class="cls-2" d="M229.57,70.92a12.59,12.59,0,0,1-5.07-1A13,13,0,0,1,217.55,63a13,13,0,0,1,0-10.11,13.41,13.41,0,0,1,2.8-4.13A13.07,13.07,0,0,1,224.5,46a13,13,0,0,1,10.13,0,13,13,0,0,1,7,6.9,13.09,13.09,0,0,1,0,10.13,13,13,0,0,1-7,6.91,12.55,12.55,0,0,1-5.06,1m0-19.26a5.64,5.64,0,0,0-2.36.5,6.05,6.05,0,0,0-1.9,1.36,6.48,6.48,0,0,0-1.26,2,6.2,6.2,0,0,0-.46,2.39,6.29,6.29,0,0,0,.46,2.4,6.78,6.78,0,0,0,1.26,2,6,6,0,0,0,1.9,1.38,5.8,5.8,0,0,0,4.71,0,6.07,6.07,0,0,0,1.9-1.38,6.52,6.52,0,0,0,1.69-4.4,6.39,6.39,0,0,0-.45-2.39,6.25,6.25,0,0,0-1.24-2,6.17,6.17,0,0,0-1.9-1.36,5.63,5.63,0,0,0-2.35-.5"/>
          <polygon class="cls-2" points="116.89 106.95 116.89 95.48 113.12 102.85 111.15 102.85 107.07 95.48 107.07 106.95 100.14 106.95 100.14 82.4 106.32 82.4 112.12 91.79 117.6 82.4 123.78 82.4 123.78 106.95 116.89 106.95"/>
          <polygon class="cls-2" points="203.79 70.19 203.79 58.72 200.03 66.09 198.05 66.09 193.97 58.72 193.97 70.19 187.04 70.19 187.04 45.65 193.23 45.65 199.02 55.03 204.5 45.65 210.69 45.65 210.69 70.19 203.79 70.19"/>
          <path class="cls-2" d="M204.6,107l-3.88-7.49h-4.36V107h-7.19V82.4H202a7,7,0,0,1,1.77.24,10.88,10.88,0,0,1,1.77.67,8.75,8.75,0,0,1,1.58,1,6.89,6.89,0,0,1,1.25,1.34,7.78,7.78,0,0,1,1,2,7.47,7.47,0,0,1,.33,2.2,7.2,7.2,0,0,1-.82,3.37,8,8,0,0,1-2.23,2.66l5.73,11ZM200,88.14h-3.62v4.69H200a2.31,2.31,0,0,0,1.67-.69,2.26,2.26,0,0,0,.71-1.67,2.22,2.22,0,0,0-.71-1.66,2.33,2.33,0,0,0-1.67-.67"/>
          <polygon class="cls-2" points="239.29 88.77 239.29 82.4 233.16 82.4 225.97 82.4 219.84 82.4 219.84 88.77 225.97 88.77 225.97 100.58 219.84 100.58 219.84 106.95 225.97 106.95 233.16 106.95 239.29 106.95 239.29 100.58 233.16 100.58 233.16 88.77 239.29 88.77"/>
        </g>
      </g>
    </g>
  </g>
</svg>
