<?xml version="1.0" encoding="utf-8"?>
<!-- Generator: Adobe Illustrator 23.0.2, SVG Export Plug-In . SVG Version: 6.00 Build 0)  -->
<svg version="1.1" id="Layer_1" xmlns="http://www.w3.org/2000/svg" xmlns:xlink="http://www.w3.org/1999/xlink" x="0px" y="0px"
	 viewBox="0 0 65 65" style="enable-background:new 0 0 65 65;" xml:space="preserve">
<style type="text/css">
	.st0{fill:#1AC1B0;}
</style>
<title>Asset 2</title>
<g>
	<g id="Layer_1-2">
		<path class="st0" d="M58.5,46v-4.1l-5-2.9l-3.6,2l-2.8-1.6l5.4-3.1v-1.5L51.2,34l-6.8,3.9l-3.4-2v-6.8l2.1-1.2l0,0l1.3-0.8
			l6.8,3.9l1.3-0.8v-1.5l-5.4-3.1l2.6-1.5l3.8,2.2l5-2.9v-4.4l2-1.1v-1.5l-1.3-0.8l-2.1,1.2l-3.6-2l-5,2.9v4.1l-2.8,1.6V17l-1.3-0.8
			L43.1,17v7.8l-1.3,0.8l-2.1,1.2l-5.9-3.4v-3.9l6.7-3.9V14l-1.3-0.8l-5.4,3.1v-3.2l3.5-2.1V5.3l-3.5-2.1V0.8L32.5,0l-1.3,0.8v2.3
			l-3.8,2.2v5.8l3.9,2.2v3l-5.4-3.1L24.4,14v1.5l6.8,3.9v3.9l-5.9,3.4l-2.1-1.2l-1.3-0.8V17l-1.3-0.8L19.2,17v6.3l-2.8-1.6v-4.1
			l-5-2.9l-3.6,2l-2.2-1.2l-1.3,0.8v1.5l2,1.1v4.4l5,2.9l3.9-2.2l2.6,1.5l-5.4,3.1v1.5l1.3,0.7l6.8-3.9l1.3,0.8l0,0l2.1,1.2v6.8
			l-3.4,2L13.8,34l-1.3,0.8v1.5l5.4,3.1L15.1,41l-3.6-2l-5,2.9V46l-2.2,1.2v1.5l1.3,0.8l2-1.2l3.9,2.2l5-2.9v-4.5l2.6-1.5V48
			l1.3,0.8l1.4-0.8v-7.8l1.3-0.8l2.1-1.2l5.9,3.4v3.9l-6.8,3.9V51l1.3,0.8l5.4-3.1v3l-3.8,2.3v5.8l3.9,2.2v2.3l1.3,0.8l1.3-0.8v-2.5
			l3.5-2.1v-5.8l-3.5-2v-3.3l5.4,3.1l1.4-0.8v-1.5l-6.8-3.9v-3.9l5.9-3.4l2.1,1.2l1.3,0.8V48l1.3,0.8l1.3-0.8v-6.3l2.6,1.5v4.5
			l5,2.9l3.9-2.2l2,1.2l1.3-0.8v-1.5L58.5,46z M51,19l2.6-1.5l2.6,1.5v3l-2.6,1.5L51,22V19z M14,22l-2.7,1.5L8.8,22v-3l2.6-1.5
			L14,19L14,22z M14.2,46.3l-2.6,1.5L9,46.3v-3l2.6-1.5l2.6,1.5V46.3z M35,55.3v3l-2.6,1.5l-2.6-1.5v-3l2.6-1.5L35,55.3z M32.4,11.2
			l-2.6-1.5v-3l2.6-1.5L35,6.7v3L32.4,11.2z M56.1,46.3l-2.6,1.5l-2.6-1.5v-3l2.6-1.5l2.6,1.5V46.3z"/>
	</g>
</g>
</svg>
