<svg xmlns="http://www.w3.org/2000/svg" width="200" height="200" viewBox="0 0 200 200">
  <defs>
    <style>
      .cls-1 {
        fill: #e0e0e0;
      }
    </style>
  </defs>
  <title>no-avatar</title>
  <g id="Layer_2" data-name="Layer 2">
    <g id="Layer_1-2" data-name="Layer 1">
      <g>
        <path class="cls-1" d="M100,200A100,100,0,1,1,200,100,100.11,100.11,0,0,1,100,200ZM100,9.7A90.3,90.3,0,1,0,190.3,100,90.4,90.4,0,0,0,100,9.7Z"/>
        <circle class="cls-1" cx="100" cy="76.39" r="38.21"/>
        <path class="cls-1" d="M100,195.15a94.79,94.79,0,0,0,63.47-24.28,66.17,66.17,0,0,0-126.94,0A94.79,94.79,0,0,0,100,195.15Z"/>
      </g>
    </g>
  </g>
</svg>
