<?xml version="1.0" encoding="utf-8"?>
<!-- Generator: Adobe Illustrator 23.0.2, SVG Export Plug-In . SVG Version: 6.00 Build 0)  -->
<svg version="1.1" id="Layer_1" xmlns="http://www.w3.org/2000/svg" xmlns:xlink="http://www.w3.org/1999/xlink" x="0px" y="0px"
	 viewBox="0 0 250.44 325.11" style="enable-background:new 0 0 250.44 325.11;" xml:space="preserve">
<style type="text/css">
	.st0{opacity:0.4;}
	.st1{filter:url(#Adobe_OpacityMaskFilter);}
	.st2{filter:url(#Adobe_OpacityMaskFilter_1_);}
	.st3{mask:url(#SVGID_1_);fill:url(#SVGID_2_);}
	.st4{opacity:0.4;fill:url(#SVGID_3_);}
	.st5{filter:url(#Adobe_OpacityMaskFilter_2_);}
	.st6{filter:url(#Adobe_OpacityMaskFilter_3_);}
	.st7{mask:url(#SVGID_4_);fill:url(#SVGID_5_);}
	.st8{opacity:0.4;fill:url(#SVGID_6_);}
	.st9{filter:url(#Adobe_OpacityMaskFilter_4_);}
	.st10{filter:url(#Adobe_OpacityMaskFilter_5_);}
	.st11{mask:url(#SVGID_7_);fill:url(#SVGID_8_);}
	.st12{opacity:0.4;fill:url(#SVGID_9_);}
	.st13{fill:#FFFFFF;}
	.st14{fill:url(#SVGID_10_);}
	.st15{filter:url(#Adobe_OpacityMaskFilter_6_);}
	.st16{filter:url(#Adobe_OpacityMaskFilter_7_);}
	.st17{mask:url(#SVGID_11_);fill:url(#SVGID_12_);}
	.st18{fill:url(#SVGID_13_);}
	.st19{fill:url(#SVGID_14_);}
	.st20{fill:url(#SVGID_15_);}
	.st21{opacity:0.6;fill:#D2D3D3;}
	.st22{fill:url(#SVGID_16_);}
	.st23{fill:url(#SVGID_17_);}
	.st24{fill:#F2F2F2;}
</style>
<g>
	<g>
		<g>
			<g class="st0">
				<defs>
					<filter id="Adobe_OpacityMaskFilter" filterUnits="userSpaceOnUse" x="0" y="181.56" width="144.11" height="110.63">
						<feColorMatrix  type="matrix" values="1 0 0 0 0  0 1 0 0 0  0 0 1 0 0  0 0 0 1 0"/>
					</filter>
				</defs>
				<mask maskUnits="userSpaceOnUse" x="0" y="181.56" width="144.11" height="110.63" id="SVGID_1_">
					<g class="st1">
						<defs>
							<filter id="Adobe_OpacityMaskFilter_1_" filterUnits="userSpaceOnUse" x="0" y="181.56" width="144.11" height="110.63">
								<feFlood  style="flood-color:white;flood-opacity:1" result="back"/>
								<feBlend  in="SourceGraphic" in2="back" mode="normal"/>
							</filter>
						</defs>
						<mask maskUnits="userSpaceOnUse" x="0" y="181.56" width="144.11" height="110.63" id="SVGID_1_">
							<g class="st2">
							</g>
						</mask>
						
							<radialGradient id="SVGID_2_" cx="25.3445" cy="177.8187" r="62.1722" gradientTransform="matrix(1.1592 0.0259 -0.0198 0.889 46.1984 78.1419)" gradientUnits="userSpaceOnUse">
							<stop  offset="0.0918" style="stop-color:#FFFFFF"/>
							<stop  offset="0.1724" style="stop-color:#F3F3F3"/>
							<stop  offset="0.32" style="stop-color:#D1D1D1"/>
							<stop  offset="0.518" style="stop-color:#9C9C9C"/>
							<stop  offset="0.759" style="stop-color:#515151"/>
							<stop  offset="1" style="stop-color:#000000"/>
						</radialGradient>
						<path class="st3" d="M144.1,238.58c0.68-30.64-31-56.11-70.86-56.99C33.48,180.7,0.7,204.7,0.01,235.35
							c-0.68,30.48,31,55.93,70.78,56.82C110.62,293.07,143.42,269.06,144.1,238.58z"/>
					</g>
				</mask>
				
					<radialGradient id="SVGID_3_" cx="25.3445" cy="177.8187" r="62.1722" gradientTransform="matrix(1.1592 0.0259 -0.0198 0.889 46.1984 78.1419)" gradientUnits="userSpaceOnUse">
					<stop  offset="0.2688" style="stop-color:#7287A0"/>
					<stop  offset="0.6438" style="stop-color:#B1B9C8"/>
					<stop  offset="1" style="stop-color:#FFFFFF"/>
				</radialGradient>
				<path class="st4" d="M144.1,238.58c0.68-30.64-31-56.11-70.86-56.99C33.48,180.7,0.7,204.7,0.01,235.35
					c-0.68,30.48,31,55.93,70.78,56.82C110.62,293.07,143.42,269.06,144.1,238.58z"/>
				<defs>
					<filter id="Adobe_OpacityMaskFilter_2_" filterUnits="userSpaceOnUse" x="81" y="181.32" width="144.11" height="110.63">
						<feColorMatrix  type="matrix" values="1 0 0 0 0  0 1 0 0 0  0 0 1 0 0  0 0 0 1 0"/>
					</filter>
				</defs>
				<mask maskUnits="userSpaceOnUse" x="81" y="181.32" width="144.11" height="110.63" id="SVGID_4_">
					<g class="st5">
						<defs>
							<filter id="Adobe_OpacityMaskFilter_3_" filterUnits="userSpaceOnUse" x="81" y="181.32" width="144.11" height="110.63">
								<feFlood  style="flood-color:white;flood-opacity:1" result="back"/>
								<feBlend  in="SourceGraphic" in2="back" mode="normal"/>
							</filter>
						</defs>
						<mask maskUnits="userSpaceOnUse" x="81" y="181.32" width="144.11" height="110.63" id="SVGID_4_">
							<g class="st6">
							</g>
						</mask>
						
							<radialGradient id="SVGID_5_" cx="95.178" cy="175.5116" r="62.1709" gradientTransform="matrix(1.1592 0.0259 -0.0198 0.889 46.1984 78.1419)" gradientUnits="userSpaceOnUse">
							<stop  offset="0.0918" style="stop-color:#FFFFFF"/>
							<stop  offset="0.1724" style="stop-color:#F3F3F3"/>
							<stop  offset="0.32" style="stop-color:#D1D1D1"/>
							<stop  offset="0.518" style="stop-color:#9C9C9C"/>
							<stop  offset="0.759" style="stop-color:#515151"/>
							<stop  offset="1" style="stop-color:#000000"/>
						</radialGradient>
						<path class="st7" d="M225.09,238.34c0.68-30.65-31-56.11-70.86-56.99c-39.76-0.89-72.54,23.11-73.23,53.76
							c-0.68,30.48,31,55.92,70.77,56.82C191.63,292.82,224.41,268.81,225.09,238.34z"/>
					</g>
				</mask>
				
					<radialGradient id="SVGID_6_" cx="95.178" cy="175.5116" r="62.1709" gradientTransform="matrix(1.1592 0.0259 -0.0198 0.889 46.1984 78.1419)" gradientUnits="userSpaceOnUse">
					<stop  offset="0.2688" style="stop-color:#7287A0"/>
					<stop  offset="0.6438" style="stop-color:#B1B9C8"/>
					<stop  offset="1" style="stop-color:#FFFFFF"/>
				</radialGradient>
				<path class="st8" d="M225.09,238.34c0.68-30.65-31-56.11-70.86-56.99c-39.76-0.89-72.54,23.11-73.23,53.76
					c-0.68,30.48,31,55.92,70.77,56.82C191.63,292.82,224.41,268.81,225.09,238.34z"/>
				<defs>
					<filter id="Adobe_OpacityMaskFilter_4_" filterUnits="userSpaceOnUse" x="44.65" y="146.44" width="144.14" height="178.67">
						<feColorMatrix  type="matrix" values="1 0 0 0 0  0 1 0 0 0  0 0 1 0 0  0 0 0 1 0"/>
					</filter>
				</defs>
				<mask maskUnits="userSpaceOnUse" x="44.65" y="146.44" width="144.14" height="178.67" id="SVGID_7_">
					<g class="st9">
						<defs>
							<filter id="Adobe_OpacityMaskFilter_5_" filterUnits="userSpaceOnUse" x="44.65" y="146.44" width="144.14" height="178.67">
								<feFlood  style="flood-color:white;flood-opacity:1" result="back"/>
								<feBlend  in="SourceGraphic" in2="back" mode="normal"/>
							</filter>
						</defs>
						<mask maskUnits="userSpaceOnUse" x="44.65" y="146.44" width="144.14" height="178.67" id="SVGID_7_">
							<g class="st10">
							</g>
						</mask>
						
							<radialGradient id="SVGID_8_" cx="64.3923" cy="66.3662" r="62.1724" gradientTransform="matrix(1.1592 0.0258 -0.0321 1.4361 44.215 138.8096)" gradientUnits="userSpaceOnUse">
							<stop  offset="0.0918" style="stop-color:#FFFFFF"/>
							<stop  offset="0.1724" style="stop-color:#F3F3F3"/>
							<stop  offset="0.32" style="stop-color:#D1D1D1"/>
							<stop  offset="0.518" style="stop-color:#9C9C9C"/>
							<stop  offset="0.759" style="stop-color:#515151"/>
							<stop  offset="1" style="stop-color:#000000"/>
						</radialGradient>
						<path class="st11" d="M188.77,237.54c1.1-49.5-30.24-90.19-70.1-91.08c-39.76-0.89-72.88,38.34-73.99,87.85
							c-1.1,49.25,30.24,89.9,70.01,90.79C154.53,325.99,187.67,286.77,188.77,237.54z"/>
					</g>
				</mask>
				
					<radialGradient id="SVGID_9_" cx="64.3923" cy="66.3662" r="62.1724" gradientTransform="matrix(1.1592 0.0258 -0.0321 1.4361 44.215 138.8096)" gradientUnits="userSpaceOnUse">
					<stop  offset="0.2688" style="stop-color:#7287A0"/>
					<stop  offset="0.6438" style="stop-color:#B1B9C8"/>
					<stop  offset="1" style="stop-color:#FFFFFF"/>
				</radialGradient>
				<path class="st12" d="M188.77,237.54c1.1-49.5-30.24-90.19-70.1-91.08c-39.76-0.89-72.88,38.34-73.99,87.85
					c-1.1,49.25,30.24,89.9,70.01,90.79C154.53,325.99,187.67,286.77,188.77,237.54z"/>
			</g>
			<path class="st13" d="M241.89,144.82c-5.6-5.91-13.17-9.34-21.29-9.67c-3.24-8.25-11.01-13.88-19.86-14.39
				c-0.08-8.16-6.72-14.92-14.89-15.1c-2.99-0.06-5.91,0.74-8.44,2.33c-4.96-6.04-12.28-9.59-20.1-9.76c-0.2,0-0.41,0-0.62,0h-0.17
				l-0.21-0.01c-0.2-0.01-0.41-0.02-0.62-0.03c-7.81-0.18-15.31,3.05-20.56,8.85c-2.46-1.7-5.35-2.64-8.35-2.7
				c-8.19-0.18-15.13,6.27-15.58,14.42c-8.84,0.12-16.86,5.4-20.48,13.5c-8.13-0.04-15.83,3.04-21.7,8.7
				c-5.95,5.74-9.33,13.44-9.51,21.71c-0.39,17.22,13.26,31.55,30.4,31.94c1.15,0.02,2.32-0.01,3.49-0.12
				c0.95,9.02,8.48,15.95,17.6,16.16c5.47,0.12,10.63-2.19,14.18-6.33c7.26,8.18,17.72,13.03,28.66,13.27
				c10.93,0.24,21.54-4.13,29.15-11.99c3.36,4.31,8.41,6.85,13.87,6.97c9.11,0.2,16.95-6.4,18.3-15.36
				c1.15,0.16,2.32,0.25,3.47,0.28c17.15,0.38,31.41-13.31,31.79-30.53C250.62,158.66,247.59,150.81,241.89,144.82z M218.67,196.49
				c-1.28-0.03-2.57-0.14-3.86-0.33l-0.5-0.08l-0.06,0.51c-1.08,8.73-8.54,15.19-17.38,14.99c-5.36-0.12-10.27-2.68-13.45-7.03
				l-0.34-0.48l-0.41,0.44c-7.44,7.92-17.96,12.33-28.82,12.09c-10.87-0.25-21.22-5.11-28.31-13.36l-0.38-0.45l-0.38,0.46
				c-3.36,4.21-8.39,6.54-13.75,6.42c-8.83-0.2-16-6.98-16.68-15.76l-0.05-0.51l-0.5,0.06c-1.28,0.14-2.59,0.19-3.86,0.17
				c-16.61-0.38-29.82-14.25-29.44-30.92c0.37-16.48,14.08-29.68,30.55-29.44l0.32,0l0.13-0.3c3.48-8.09,11.39-13.26,20.18-13.2
				h0.48l0.02-0.49c0.18-7.86,6.7-14.1,14.57-13.92c2.95,0.07,5.77,1.02,8.15,2.78l0.37,0.27l0.3-0.35
				c5.08-5.8,12.41-9.02,20.1-8.85c0.19,0,0.39,0.02,0.58,0.02l0.24,0.01h0.2c0.2,0,0.39,0,0.58,0c7.68,0.17,14.84,3.73,19.63,9.74
				l0.29,0.36l0.38-0.25c2.45-1.64,5.3-2.48,8.25-2.41c3.8,0.08,7.34,1.65,9.97,4.41c2.63,2.75,4.04,6.36,3.95,10.16l-0.01,0.48
				l0.49,0.02c8.79,0.33,16.47,5.86,19.57,14.09l0.12,0.31l0.33,0c16.47,0.5,29.57,14.3,29.2,30.78
				C249.08,183.6,235.27,196.86,218.67,196.49z"/>
			
				<radialGradient id="SVGID_10_" cx="178.3753" cy="167.4916" r="136.6288" gradientTransform="matrix(0.9998 0.0223 -0.0223 0.9998 2.0645 -10.4435)" gradientUnits="userSpaceOnUse">
				<stop  offset="0" style="stop-color:#FFFFFF"/>
				<stop  offset="0.3839" style="stop-color:#EEEEEE"/>
				<stop  offset="1" style="stop-color:#D2D3D3"/>
			</radialGradient>
			<path class="st14" d="M220.25,135.64c-3.07-8.16-10.8-14.06-20-14.42c0,0,0,0,0,0c0.18-8.13-6.28-14.88-14.42-15.06
				c-3.15-0.07-6.1,0.85-8.54,2.49c-4.69-5.9-11.87-9.74-20-9.93c-0.26-0.01-0.53,0-0.8,0c-0.27-0.01-0.54-0.03-0.8-0.04
				c-8.13-0.18-15.5,3.34-20.47,9.03c-2.37-1.75-5.28-2.81-8.44-2.87c-8.16-0.19-14.89,6.26-15.08,14.4c0,0.01,0,0.01,0,0.01
				c-9.21-0.06-17.2,5.49-20.63,13.5c-16.8-0.25-30.68,13.1-31.05,29.92c-0.38,16.98,13.02,31.05,29.92,31.43
				c1.32,0.03,2.63-0.03,3.92-0.17c0.69,8.91,8.03,16,17.16,16.21c5.7,0.13,10.84-2.47,14.15-6.6c6.95,8.07,17.2,13.28,28.69,13.54
				c11.48,0.26,21.9-4.5,29.18-12.25c3.12,4.28,8.13,7.11,13.84,7.23c9.13,0.2,16.78-6.57,17.87-15.42
				c1.27,0.19,2.58,0.31,3.91,0.35c16.9,0.37,30.91-13.07,31.28-30.06C250.31,150.09,237.05,136.14,220.25,135.64z"/>
			<defs>
				<filter id="Adobe_OpacityMaskFilter_6_" filterUnits="userSpaceOnUse" x="59.95" y="108.07" width="152.3" height="117.04">
					<feColorMatrix  type="matrix" values="1 0 0 0 0  0 1 0 0 0  0 0 1 0 0  0 0 0 1 0"/>
				</filter>
			</defs>
			<mask maskUnits="userSpaceOnUse" x="59.95" y="108.07" width="152.3" height="117.04" id="SVGID_11_">
				<g class="st15">
					<defs>
						<filter id="Adobe_OpacityMaskFilter_7_" filterUnits="userSpaceOnUse" x="59.95" y="108.07" width="152.3" height="117.04">
							<feFlood  style="flood-color:white;flood-opacity:1" result="back"/>
							<feBlend  in="SourceGraphic" in2="back" mode="normal"/>
						</filter>
					</defs>
					<mask maskUnits="userSpaceOnUse" x="59.95" y="108.07" width="152.3" height="117.04" id="SVGID_11_">
						<g class="st16">
						</g>
					</mask>
					
						<radialGradient id="SVGID_12_" cx="65.6862" cy="194.1129" r="53.8823" gradientTransform="matrix(1.4133 0.0315 -0.0243 1.0854 47.9798 -46.1681)" gradientUnits="userSpaceOnUse">
						<stop  offset="0" style="stop-color:#FFFFFF"/>
						<stop  offset="0.0876" style="stop-color:#F3F3F3"/>
						<stop  offset="0.2458" style="stop-color:#D3D3D3"/>
						<stop  offset="0.4565" style="stop-color:#A0A0A0"/>
						<stop  offset="0.7117" style="stop-color:#595959"/>
						<stop  offset="1" style="stop-color:#000000"/>
					</radialGradient>
					<path class="st17" d="M212.24,168.28c0.72-32.32-32.77-59.25-74.83-60.19c-42.08-0.94-76.73,24.46-77.44,56.77
						c-0.72,32.36,32.77,59.28,74.82,60.22C176.86,226.03,211.51,200.63,212.24,168.28z"/>
				</g>
			</mask>
			
				<radialGradient id="SVGID_13_" cx="65.6862" cy="194.1129" r="53.8823" gradientTransform="matrix(1.4133 0.0315 -0.0243 1.0854 47.9798 -46.1681)" gradientUnits="userSpaceOnUse">
				<stop  offset="0" style="stop-color:#221F1F"/>
				<stop  offset="0.1109" style="stop-color:#2C2828"/>
				<stop  offset="0.3111" style="stop-color:#464140"/>
				<stop  offset="0.5775" style="stop-color:#767170"/>
				<stop  offset="0.8968" style="stop-color:#D1CECE"/>
				<stop  offset="1" style="stop-color:#FFFFFF"/>
			</radialGradient>
			<path class="st18" d="M212.24,168.28c0.72-32.32-32.77-59.25-74.83-60.19c-42.08-0.94-76.73,24.46-77.44,56.77
				c-0.72,32.36,32.77,59.28,74.82,60.22C176.86,226.03,211.51,200.63,212.24,168.28z"/>
			<g>
				<g>
					<path class="st13" d="M215.7,144.4c-3.92-5.95-9.24-9.3-14.97-9.46c-2.28-8.44-7.78-14.02-14.09-14.31
						c-0.05-8.32-4.72-15.04-10.56-15.04c-2.15-0.01-4.23,0.9-6.01,2.61c-3.58-6.06-8.81-9.51-14.4-9.51
						c-0.15,0-0.29,0.01-0.44,0.01l-0.37,0.02l-0.16,120.59l0.22,0.01c7.53,0.17,14.77-4.38,19.92-12.49
						c2.32,4.41,5.79,6.98,9.58,7.06c6.3,0.13,11.62-6.67,12.49-15.86c0.84,0.16,1.67,0.25,2.5,0.27
						c11.79,0.21,21.7-13.89,22.09-31.48C221.7,158.38,219.65,150.42,215.7,144.4z"/>
					<path class="st13" d="M154.96,98.71c-0.14,0-0.28-0.01-0.43-0.01c-5.58,0-10.85,3.45-14.45,9.46c-1.79-1.7-3.87-2.6-6.03-2.6
						c-5.85-0.01-10.56,6.62-10.6,14.85c-6.33,0.23-11.85,5.68-14.16,13.97c-5.73,0.07-11.05,3.3-14.99,9.05
						c-3.96,5.81-6.05,13.53-5.88,21.76c0.34,17.16,10.21,31.29,22,31.49c0.83,0.02,1.67-0.04,2.5-0.17
						c0.85,9.08,6.16,15.99,12.45,16.12c3.78,0.08,7.28-2.33,9.62-6.59c5.16,8.27,12.42,13.11,19.94,13.27l0.23,0.01l0.18-120.6
						L154.96,98.71z"/>
				</g>
				
					<radialGradient id="SVGID_14_" cx="425.9694" cy="152.5319" r="129.4642" gradientTransform="matrix(0.739 0.0165 -0.0223 0.9998 -122.0603 -12.9975)" gradientUnits="userSpaceOnUse">
					<stop  offset="0" style="stop-color:#F2F2F0"/>
					<stop  offset="1" style="stop-color:#DADAD9"/>
				</radialGradient>
				<path class="st19" d="M174.87,206.3c2.17,4.33,5.64,7.17,9.56,7.25c6.28,0.14,11.54-6.84,12.29-15.89
					c0.88,0.17,1.79,0.28,2.71,0.29c11.68,0.22,21.47-13.72,21.85-31.14c0.38-17.27-8.88-31.33-20.71-31.54
					c-2.18-8.27-7.64-14.15-14.17-14.32l0,0c0.09-8.3-4.53-15.03-10.32-15.03c-2.25,0-4.33,1.01-6.05,2.72
					c-3.41-5.89-8.57-9.63-14.36-9.63c-0.2,0-0.38,0.01-0.57,0.02l-0.18,119.94C162.81,219.16,169.93,214.26,174.87,206.3z"/>
				
					<radialGradient id="SVGID_15_" cx="167.5709" cy="174.0674" r="119.1132" gradientTransform="matrix(0.9998 0.0223 -0.0223 0.9998 2.0644 -10.4434)" gradientUnits="userSpaceOnUse">
					<stop  offset="0" style="stop-color:#FFFFFF"/>
					<stop  offset="0.8155" style="stop-color:#EFEEED"/>
					<stop  offset="1" style="stop-color:#EBEBEA"/>
				</radialGradient>
				<path class="st20" d="M154.53,99.02c-5.79,0-10.98,3.73-14.42,9.58c-1.71-1.71-3.81-2.71-6.07-2.71
					c-5.8,0-10.45,6.64-10.37,14.84v0c-6.54,0.12-12.03,5.86-14.23,13.97c-11.84,0.05-21.13,13.65-20.8,30.5
					c0.34,17.01,10.08,30.95,21.76,31.16c0.91,0.01,1.82-0.06,2.7-0.2c0.72,8.93,5.96,16.01,12.25,16.15
					c3.92,0.08,7.41-2.58,9.62-6.78c4.95,8.09,12.07,13.28,19.95,13.46l0.18-119.94C154.92,99.04,154.72,99.02,154.53,99.02z"/>
			</g>
		</g>
		<g>
			<path class="st21" d="M156.02,98.28c0-0.44-0.35-0.79-0.79-0.79l0,0c-0.43,0-0.79,0.35-0.79,0.79v7.57
				c0,0.44,0.36,0.79,0.79,0.79l0,0c0.44,0,0.79-0.36,0.79-0.79V98.28z"/>
			<g>
				
					<linearGradient id="SVGID_16_" gradientUnits="userSpaceOnUse" x1="242.2701" y1="106.6429" x2="245.6917" y2="106.6429" gradientTransform="matrix(-1 0 0 1 399.2114 0)">
					<stop  offset="0" style="stop-color:#C2C2C1"/>
					<stop  offset="0.3028" style="stop-color:#D3D4D2"/>
					<stop  offset="0.7306" style="stop-color:#E9EAE8"/>
					<stop  offset="1" style="stop-color:#F2F2F0"/>
				</linearGradient>
				<path class="st22" d="M155.23,104.93c0.94,0,1.71,0.76,1.71,1.71c0,0.94-0.77,1.71-1.71,1.71c-0.94,0-1.71-0.77-1.71-1.71
					C153.52,105.7,154.29,104.93,155.23,104.93z"/>
				
					<radialGradient id="SVGID_17_" cx="244.5659" cy="107.3526" r="3.0763" gradientTransform="matrix(-1 0 0 1 399.2114 0)" gradientUnits="userSpaceOnUse">
					<stop  offset="0.0408" style="stop-color:#C9CFDC"/>
					<stop  offset="0.199" style="stop-color:#C5CCD9"/>
					<stop  offset="0.3845" style="stop-color:#B7C3D0"/>
					<stop  offset="0.5838" style="stop-color:#A2B5C2"/>
					<stop  offset="0.7912" style="stop-color:#85A3B1"/>
					<stop  offset="0.9694" style="stop-color:#6893A1"/>
				</radialGradient>
				<path class="st23" d="M153.75,106.64c0-0.81,0.66-1.47,1.48-1.47c0.81,0,1.48,0.66,1.48,1.47c0,0.81-0.66,1.47-1.48,1.47
					C154.41,108.11,153.75,107.45,153.75,106.64z"/>
			</g>
			<g>
				<path class="st24" d="M155.49,106.64c0.29,0,0.53-0.2,0.53-0.45V0.62c0-0.25-0.24-0.45-0.53-0.45s-0.53-0.33-0.53-0.08v106.1
					C154.96,106.45,155.2,106.64,155.49,106.64z"/>
			</g>
			<g>
				<g>
					<path class="st24" d="M149.21,95.34c-0.35-0.49-0.62-1.3,0-2.4c0.17-0.3,0.43-0.48,0.78-0.52c1.68-0.2,5.13,3.41,5.52,3.83
						c0.06,0.06,0.09,0.15,0.09,0.23c0.44-0.03,0.89-0.08,1.33-0.15c2.09-0.36,3.46-1.18,3.75-2.24c0.06-0.19,0.25-0.29,0.43-0.24
						c0.19,0.05,0.29,0.24,0.24,0.43c-0.37,1.33-1.94,2.34-4.31,2.74c-0.72,0.12-1.49,0.19-2.26,0.19
						C152.44,97.2,150.11,96.61,149.21,95.34z M150.07,93.1c-0.11,0.02-0.19,0.07-0.25,0.18c-0.36,0.64-0.38,1.18-0.04,1.66
						c0.68,0.97,2.75,1.57,5.01,1.57c-1.37-1.42-3.64-3.4-4.64-3.4C150.13,93.1,150.1,93.1,150.07,93.1z"/>
				</g>
			</g>
		</g>
	</g>
</g>
</svg>
