<?xml version="1.0" encoding="utf-8"?>
<!-- Generator: Adobe Illustrator 23.0.2, SVG Export Plug-In . SVG Version: 6.00 Build 0)  -->
<svg version="1.1" id="Layer_1" xmlns="http://www.w3.org/2000/svg" xmlns:xlink="http://www.w3.org/1999/xlink" x="0px" y="0px"
	 viewBox="0 0 98.24 106" style="enable-background:new 0 0 98.24 106;" xml:space="preserve">
<title>Asset 12</title>
<g>
	<g id="Layer_1-2">
		<path d="M17.13,87.15L17.13,87.15c-1.18,0-2.34-0.23-3.43-0.69c-4.47-1.94-6.58-7.08-4.77-11.6c0.53-1.31,1.8-2.76,4-4.56
			l0.08-0.07l0.09-0.08l0.1-0.06l10.13-7l2.54,12.46v0.13c0.15,1.33,0.15,2.67,0,4c-0.11,0.68-0.29,1.35-0.53,2
			C23.96,85,20.72,87.16,17.13,87.15z M15.93,73.86L15.93,73.86c-2.28,1.86-2.63,2.68-2.64,2.71c-0.83,2.16,0.16,4.59,2.26,5.56
			c0.52,0.22,1.07,0.33,1.63,0.33c1.67-0.02,3.17-1.03,3.82-2.57c0.11-0.35,0.2-0.71,0.26-1.08c0.08-0.87,0.08-1.75,0-2.62
			l-1.08-5.27L15.93,73.86z"/>
		<path d="M24.12,106L24.12,106c-1.01,0-2.01-0.2-2.94-0.59c-3.79-1.68-5.59-6.05-4.07-9.91c0.79-1.53,1.93-2.85,3.34-3.85
			l0.06-0.05l0.09-0.07l8.81-6.1l2.18,10.71v0.14c0.14,1.12,0.14,2.26,0,3.38c-0.09,0.57-0.24,1.13-0.45,1.67
			C29.96,104.17,27.19,106.01,24.12,106z M21.42,97.26c-0.55,1.5,0.13,3.18,1.58,3.86c0.36,0.15,0.75,0.23,1.14,0.23
			c1.18,0,2.25-0.71,2.71-1.8c0,0,0.08-0.25,0.19-0.78c0.05-0.67,0.05-1.33,0-2l-0.72-3.53l-2.83,2l0,0
			C22.68,95.78,21.98,96.46,21.42,97.26z"/>
		<path d="M47.91,93.29L47.91,93.29c-1.58,0-3.14-0.32-4.6-0.93c-2.91-1.26-5.19-3.64-6.31-6.6c-1.15-2.89-1.15-6.11,0-9
			c0.7-1.72,2.51-3.76,5.54-6.24l0.13-0.11l0.09-0.08l0.1-0.07L56.24,61l3.38,16.54v0.14c0.22,1.87,0.22,3.75,0,5.62
			c-0.14,0.92-0.38,1.83-0.71,2.7c-1.85,4.44-6.19,7.33-11,7.33V93.29z M45.5,74.07l-0.1,0.09c-3.32,2.72-4,4-4.17,4.39
			c-1.42,3.7,0.28,7.86,3.88,9.51c0.89,0.38,1.84,0.57,2.8,0.57c2.93,0.01,5.58-1.76,6.7-4.47c0.2-0.58,0.35-1.18,0.45-1.78
			c0.12-1.4,0.1-2.81-0.06-4.2l-1.91-9.36L45.5,74.07z"/>
		<path d="M74.69,87.21c-0.35-0.01-0.69-0.09-1-0.25c-0.99-0.5-1.49-1.63-1.2-2.7L78,64c0.02-0.05,0.02-0.1,0-0.15l0,0
			c-0.04-0.02-0.09-0.02-0.13,0H64.4c-1.29-0.01-2.34-1.06-2.33-2.35c0-0.37,0.09-0.73,0.26-1.06l13-25
			c0.4-0.77,1.19-1.25,2.06-1.26h14.09c1.29,0,2.33,1.05,2.33,2.33c0,0.34-0.08,0.68-0.23,1L85.09,55.3c-0.03,0.05-0.03,0.12,0,0.17
			c0.03,0.04,0.09,0.07,0.14,0.07h10.69c1.29,0,2.33,1.04,2.33,2.33c0,0.52-0.18,1.03-0.5,1.44l-21.22,27
			C76.08,86.87,75.41,87.2,74.69,87.21z M81.69,60.99c0.89,1.2,1.19,2.74,0.8,4.18L80,74.37l11.13-14.18h-5.89
			c-1.64,0.02-3.18-0.81-4.07-2.19l0,0c-0.88-1.39-0.98-3.14-0.27-4.63l6.9-14.6h-9L68.23,59.08h9.63c1.51,0.01,2.94,0.72,3.85,1.92
			L81.69,60.99z"/>
		<path d="M90.02,24.51C86.2,15.57,77.42,9.76,67.7,9.74c-2.12,0-4.22,0.28-6.27,0.82c-0.01-0.01-0.02-0.03-0.03-0.04
			c-9.04-11.78-25.91-14-37.69-4.96c-4.24,3.24-7.43,7.67-9.15,12.72c-3.93,1.18-7.42,3.52-10,6.71c-1.45,1.79-2.58,3.81-3.35,5.98
			c-0.67,1.85-1.06,3.79-1.18,5.75c-0.64,11.23,7.95,20.86,19.18,21.5H63.5l2.43-4.68H19.72l-0.26-0.03
			c-6.96-0.43-12.81-5.4-14.36-12.2c-1.92-8.46,3.38-16.88,11.84-18.8l1.35-0.31l0.38-1.34c1.44-5.1,4.65-9.52,9.05-12.47
			c10.22-6.82,24.03-4.07,30.85,6.14l1,1.49l1.7-0.58c2.06-0.72,4.23-1.08,6.42-1.08c10.82,0.01,19.58,8.77,19.6,19.59v0.22h4.21
			c0.16,0,0.31,0.02,0.46,0.05v-0.23C91.96,30.73,91.3,27.51,90.02,24.51z"/>
	</g>
</g>
</svg>
