<svg xmlns="http://www.w3.org/2000/svg" xmlns:xlink="http://www.w3.org/1999/xlink" width="250.44" height="325.11" viewBox="0 0 250.44 325.11">
  <defs>
    <style>
      .cls-1 {
        mask: url(#mask);
      }

      .cls-12, .cls-14, .cls-16, .cls-2, .cls-20, .cls-4, .cls-6, .cls-8 {
        mix-blend-mode: multiply;
      }

      .cls-2 {
        fill: url(#radial-gradient);
      }

      .cls-3 {
        mask: url(#mask-2);
      }

      .cls-4 {
        fill: url(#radial-gradient-2);
      }

      .cls-5 {
        mask: url(#mask-3);
      }

      .cls-6 {
        fill: url(#radial-gradient-3);
      }

      .cls-7 {
        mask: url(#mask-4);
      }

      .cls-8 {
        fill: url(#radial-gradient-4);
      }

      .cls-9 {
        isolation: isolate;
      }

      .cls-10, .cls-12, .cls-14, .cls-16 {
        opacity: 0.4;
      }

      .cls-11 {
        mask: url(#mask-5);
      }

      .cls-12 {
        fill: url(#radial-gradient-5);
      }

      .cls-13 {
        mask: url(#mask-6);
      }

      .cls-14 {
        fill: url(#radial-gradient-6);
      }

      .cls-15 {
        mask: url(#mask-7);
      }

      .cls-16 {
        fill: url(#radial-gradient-7);
      }

      .cls-17 {
        fill: #fff;
      }

      .cls-18 {
        fill: url(#radial-gradient-8);
      }

      .cls-19 {
        mask: url(#mask-8);
      }

      .cls-20 {
        fill: url(#radial-gradient-9);
      }

      .cls-21 {
        fill: url(#radial-gradient-10);
      }

      .cls-22 {
        fill: url(#radial-gradient-11);
      }

      .cls-23 {
        fill: #d2d3d3;
        opacity: 0.6;
      }

      .cls-24 {
        fill: url(#linear-gradient);
      }

      .cls-25 {
        fill: url(#radial-gradient-12);
      }

      .cls-26 {
        fill: #f2f2f2;
      }

      .cls-27 {
        filter: url(#luminosity-noclip-4);
      }

      .cls-28 {
        filter: url(#luminosity-noclip-3);
      }

      .cls-29 {
        filter: url(#luminosity-noclip-2);
      }

      .cls-30 {
        filter: url(#luminosity-noclip);
      }
    </style>
    <filter id="luminosity-noclip" x="0" y="-8355" width="144.11" height="32766" filterUnits="userSpaceOnUse" color-interpolation-filters="sRGB">
      <feFlood flood-color="#fff" result="bg"/>
      <feBlend in="SourceGraphic" in2="bg"/>
    </filter>
    <mask id="mask" x="0" y="-8355" width="144.11" height="32766" maskUnits="userSpaceOnUse">
      <g class="cls-30"/>
    </mask>
    <radialGradient id="radial-gradient" cx="25.34" cy="177.82" r="62.17" gradientTransform="matrix(1.16, 0.03, -0.02, 0.89, 46.2, 78.14)" gradientUnits="userSpaceOnUse">
      <stop offset="0.09" stop-color="#fff"/>
      <stop offset="0.17" stop-color="#f3f3f3"/>
      <stop offset="0.32" stop-color="#d1d1d1"/>
      <stop offset="0.52" stop-color="#9c9c9c"/>
      <stop offset="0.76" stop-color="#515151"/>
      <stop offset="1"/>
    </radialGradient>
    <filter id="luminosity-noclip-2" x="81" y="-8355" width="144.11" height="32766" filterUnits="userSpaceOnUse" color-interpolation-filters="sRGB">
      <feFlood flood-color="#fff" result="bg"/>
      <feBlend in="SourceGraphic" in2="bg"/>
    </filter>
    <mask id="mask-2" x="81" y="-8355" width="144.11" height="32766" maskUnits="userSpaceOnUse">
      <g class="cls-29"/>
    </mask>
    <radialGradient id="radial-gradient-2" cx="95.18" cy="175.51" r="62.17" xlink:href="#radial-gradient"/>
    <filter id="luminosity-noclip-3" x="44.65" y="-8355" width="144.14" height="32766" filterUnits="userSpaceOnUse" color-interpolation-filters="sRGB">
      <feFlood flood-color="#fff" result="bg"/>
      <feBlend in="SourceGraphic" in2="bg"/>
    </filter>
    <mask id="mask-3" x="44.65" y="-8355" width="144.14" height="32766" maskUnits="userSpaceOnUse">
      <g class="cls-28"/>
    </mask>
    <radialGradient id="radial-gradient-3" cx="64.39" cy="66.37" r="62.17" gradientTransform="matrix(1.16, 0.03, -0.03, 1.44, 44.22, 138.81)" xlink:href="#radial-gradient"/>
    <filter id="luminosity-noclip-4" x="59.95" y="-8355" width="152.3" height="32766" filterUnits="userSpaceOnUse" color-interpolation-filters="sRGB">
      <feFlood flood-color="#fff" result="bg"/>
      <feBlend in="SourceGraphic" in2="bg"/>
    </filter>
    <mask id="mask-4" x="59.95" y="-8355" width="152.3" height="32766" maskUnits="userSpaceOnUse">
      <g class="cls-27"/>
    </mask>
    <radialGradient id="radial-gradient-4" cx="65.69" cy="194.11" r="53.88" gradientTransform="matrix(1.41, 0.03, -0.02, 1.09, 47.98, -46.17)" gradientUnits="userSpaceOnUse">
      <stop offset="0" stop-color="#fff"/>
      <stop offset="0.09" stop-color="#f3f3f3"/>
      <stop offset="0.25" stop-color="#d3d3d3"/>
      <stop offset="0.46" stop-color="#a0a0a0"/>
      <stop offset="0.71" stop-color="#595959"/>
      <stop offset="1"/>
    </radialGradient>
    <mask id="mask-5" x="0" y="181.56" width="144.11" height="110.63" maskUnits="userSpaceOnUse">
      <g class="cls-1">
        <path class="cls-2" d="M144.1,238.58c.67-30.64-31-56.11-70.86-57S.7,204.7,0,235.35c-.68,30.49,31,55.93,70.78,56.82S143.42,269.06,144.1,238.58Z"/>
      </g>
    </mask>
    <radialGradient id="radial-gradient-5" cx="25.34" cy="177.82" r="62.17" gradientTransform="matrix(1.16, 0.03, -0.02, 0.89, 46.2, 78.14)" gradientUnits="userSpaceOnUse">
      <stop offset="0.27" stop-color="#7287a0"/>
      <stop offset="0.67" stop-color="#bec8d3"/>
      <stop offset="1" stop-color="#fff"/>
    </radialGradient>
    <mask id="mask-6" x="81" y="181.32" width="144.11" height="110.63" maskUnits="userSpaceOnUse">
      <g class="cls-3">
        <path class="cls-4" d="M225.09,238.34c.68-30.65-31-56.11-70.85-57S81.7,204.46,81,235.11c-.68,30.48,31,55.92,70.77,56.82S224.41,268.81,225.09,238.34Z"/>
      </g>
    </mask>
    <radialGradient id="radial-gradient-6" cx="95.18" cy="175.51" r="62.17" xlink:href="#radial-gradient-5"/>
    <mask id="mask-7" x="44.65" y="146.44" width="144.14" height="178.67" maskUnits="userSpaceOnUse">
      <g class="cls-5">
        <path class="cls-6" d="M188.77,237.54c1.1-49.5-30.24-90.19-70.1-91.08s-72.88,38.33-74,87.84c-1.1,49.25,30.24,89.9,70,90.8S187.67,286.77,188.77,237.54Z"/>
      </g>
    </mask>
    <radialGradient id="radial-gradient-7" cx="64.39" cy="66.37" r="62.17" gradientTransform="matrix(1.16, 0.03, -0.03, 1.44, 44.22, 138.81)" xlink:href="#radial-gradient-5"/>
    <radialGradient id="radial-gradient-8" cx="178.38" cy="167.49" r="136.63" gradientTransform="translate(2.06 -10.44) rotate(1.28)" gradientUnits="userSpaceOnUse">
      <stop offset="0" stop-color="#fff"/>
      <stop offset="0.37" stop-color="#f2f2f2"/>
      <stop offset="1" stop-color="#d2d3d3"/>
    </radialGradient>
    <mask id="mask-8" x="59.95" y="108.07" width="152.3" height="117.04" maskUnits="userSpaceOnUse">
      <g class="cls-7">
        <path class="cls-8" d="M212.24,168.28C213,136,179.47,109,137.4,108.1S60.68,132.56,60,164.87s32.76,59.28,74.82,60.21S211.51,200.63,212.24,168.28Z"/>
      </g>
    </mask>
    <radialGradient id="radial-gradient-9" cx="65.69" cy="194.11" r="53.88" gradientTransform="matrix(1.41, 0.03, -0.02, 1.09, 47.98, -46.17)" gradientUnits="userSpaceOnUse">
      <stop offset="0" stop-color="#221f1f"/>
      <stop offset="0.1" stop-color="#2e2b2b"/>
      <stop offset="0.27" stop-color="#4d4b4b"/>
      <stop offset="0.51" stop-color="#807e7e"/>
      <stop offset="0.78" stop-color="#c5c4c4"/>
      <stop offset="1" stop-color="#fff"/>
    </radialGradient>
    <radialGradient id="radial-gradient-10" cx="425.97" cy="152.53" r="129.46" gradientTransform="matrix(0.74, 0.02, -0.02, 1, -122.06, -13)" gradientUnits="userSpaceOnUse">
      <stop offset="0" stop-color="#f2f2f0"/>
      <stop offset="1" stop-color="#dadad9"/>
    </radialGradient>
    <radialGradient id="radial-gradient-11" cx="167.57" cy="174.07" r="119.11" gradientTransform="translate(2.06 -10.44) rotate(1.28)" gradientUnits="userSpaceOnUse">
      <stop offset="0" stop-color="#fff"/>
      <stop offset="0.68" stop-color="#f2f2f2"/>
      <stop offset="1" stop-color="#ebebea"/>
    </radialGradient>
    <linearGradient id="linear-gradient" x1="242.27" y1="106.64" x2="245.69" y2="106.64" gradientTransform="matrix(-1, 0, 0, 1, 399.21, 0)" gradientUnits="userSpaceOnUse">
      <stop offset="0" stop-color="#c2c2c1"/>
      <stop offset="0.26" stop-color="#d3d3d1"/>
      <stop offset="0.72" stop-color="#eaeae8"/>
      <stop offset="1" stop-color="#f2f2f0"/>
    </linearGradient>
    <radialGradient id="radial-gradient-12" cx="244.57" cy="107.35" r="3.08" gradientTransform="matrix(-1, 0, 0, 1, 399.21, 0)" gradientUnits="userSpaceOnUse">
      <stop offset="0.04" stop-color="#c9cfdc"/>
      <stop offset="0.21" stop-color="#c4ccd9"/>
      <stop offset="0.41" stop-color="#b6c3d0"/>
      <stop offset="0.62" stop-color="#9eb5c2"/>
      <stop offset="0.85" stop-color="#7ea0ae"/>
      <stop offset="0.97" stop-color="#6893a1"/>
    </radialGradient>
  </defs>
  <title>Asset 1</title>
  <g class="cls-9">
    <g id="Layer_2" data-name="Layer 2">
      <g id="Layer_1-2" data-name="Layer 1">
        <g>
          <g>
            <g class="cls-10">
              <g class="cls-11">
                <path class="cls-12" d="M144.1,238.58c.67-30.64-31-56.11-70.86-57S.7,204.7,0,235.35c-.68,30.49,31,55.93,70.78,56.82S143.42,269.06,144.1,238.58Z"/>
              </g>
              <g class="cls-13">
                <path class="cls-14" d="M225.09,238.34c.68-30.65-31-56.11-70.85-57S81.7,204.46,81,235.11c-.68,30.48,31,55.92,70.77,56.82S224.41,268.81,225.09,238.34Z"/>
              </g>
              <g class="cls-15">
                <path class="cls-16" d="M188.77,237.54c1.1-49.5-30.24-90.19-70.1-91.08s-72.88,38.33-74,87.84c-1.1,49.25,30.24,89.9,70,90.8S187.67,286.77,188.77,237.54Z"/>
              </g>
            </g>
            <path class="cls-17" d="M241.89,144.82a30.91,30.91,0,0,0-21.29-9.66,22.79,22.79,0,0,0-19.86-14.4A15.24,15.24,0,0,0,177.4,108a26.78,26.78,0,0,0-20.1-9.76h-1l-.63,0a26.89,26.89,0,0,0-20.56,8.85,15.27,15.27,0,0,0-23.92,11.71,22.81,22.81,0,0,0-20.48,13.5,31.17,31.17,0,0,0-.82,62.34,29.15,29.15,0,0,0,3.49-.12,18.11,18.11,0,0,0,31.78,9.83A39.38,39.38,0,0,0,183,205.59a18.1,18.1,0,0,0,32.17-8.39,29.31,29.31,0,0,0,3.48.28,31.2,31.2,0,0,0,31.79-30.54A30.84,30.84,0,0,0,241.89,144.82Zm-23.22,51.67a31.58,31.58,0,0,1-3.86-.33l-.5-.09-.05.52a17.13,17.13,0,0,1-30.83,8l-.34-.48-.42.43a38.43,38.43,0,0,1-57.13-1.27l-.38-.45-.38.46a17.12,17.12,0,0,1-30.43-9.34l-.06-.51-.5.05a29.18,29.18,0,0,1-3.85.17,30.19,30.19,0,0,1,1.11-60.36h.32l.13-.3a21.75,21.75,0,0,1,20.19-13.2h.48l0-.49a14.26,14.26,0,0,1,22.72-11.15l.37.27.3-.34a25.86,25.86,0,0,1,20.1-8.85l.57,0h1A25.74,25.74,0,0,1,176.91,109l.29.35.37-.25a14.26,14.26,0,0,1,22.18,12.16l0,.49h.49a21.75,21.75,0,0,1,19.57,14.09l.12.32h.33a30.19,30.19,0,0,1-1.57,60.36Z"/>
            <path class="cls-18" d="M220.25,135.64a22.26,22.26,0,0,0-20-14.41h0a14.75,14.75,0,0,0-23-12.57,26.24,26.24,0,0,0-20-9.93h-.8l-.8,0a26.38,26.38,0,0,0-20.48,9,14.76,14.76,0,0,0-23.52,11.53h0a22.28,22.28,0,0,0-20.63,13.49,30.69,30.69,0,0,0-1.13,61.36,30,30,0,0,0,3.92-.17,17.62,17.62,0,0,0,31.31,9.61A38.92,38.92,0,0,0,183,204.84a17.62,17.62,0,0,0,31.71-8.19,35.52,35.52,0,0,0,3.91.34,30.69,30.69,0,0,0,1.6-61.35Z"/>
            <g class="cls-19">
              <path class="cls-20" d="M212.24,168.28C213,136,179.47,109,137.4,108.1S60.68,132.56,60,164.87s32.76,59.28,74.82,60.21S211.51,200.63,212.24,168.28Z"/>
            </g>
            <g>
              <g>
                <path class="cls-17" d="M215.7,144.4c-3.92-5.94-9.23-9.29-15-9.45-2.27-8.44-7.78-14-14.09-14.31,0-8.32-4.72-15-10.55-15a8.61,8.61,0,0,0-6,2.61c-3.59-6.06-8.81-9.52-14.4-9.52l-.44,0h-.37l-.16,120.59h.22c7.53.17,14.77-4.38,19.92-12.49,2.33,4.41,5.8,7,9.58,7.06,6.3.13,11.62-6.67,12.49-15.86a15.28,15.28,0,0,0,2.5.27c11.79.21,21.7-13.89,22.09-31.48C221.7,158.38,219.65,150.42,215.7,144.4Z"/>
                <path class="cls-17" d="M155,98.71l-.43,0c-5.58,0-10.84,3.45-14.45,9.47a8.78,8.78,0,0,0-6-2.61c-5.85,0-10.56,6.62-10.61,14.86-6.33.23-11.85,5.68-14.15,14-5.74.08-11.05,3.3-15,9.06s-6,13.53-5.88,21.76c.34,17.16,10.21,31.29,22,31.49a14,14,0,0,0,2.5-.16c.85,9.07,6.16,16,12.45,16.12,3.78.08,7.29-2.33,9.63-6.59,5.16,8.26,12.42,13.1,19.94,13.27h.23l.19-120.61Z"/>
              </g>
              <path class="cls-21" d="M174.87,206.3c2.18,4.33,5.65,7.17,9.57,7.25,6.28.14,11.54-6.84,12.28-15.89a15.39,15.39,0,0,0,2.71.29c11.69.22,21.48-13.71,21.85-31.13.38-17.27-8.88-31.33-20.71-31.54-2.17-8.27-7.64-14.15-14.16-14.31h0c.08-8.3-4.54-15-10.32-15a8.58,8.58,0,0,0-6.05,2.72c-3.41-5.88-8.57-9.63-14.36-9.63l-.57,0L154.93,219C162.81,219.16,169.93,214.26,174.87,206.3Z"/>
              <path class="cls-22" d="M154.53,99c-5.79,0-11,3.73-14.41,9.58a8.58,8.58,0,0,0-6.07-2.71c-5.8,0-10.45,6.64-10.37,14.84h0c-6.54.11-12,5.86-14.23,14-11.84.05-21.13,13.65-20.8,30.5.33,17,10.08,30.94,21.76,31.16a17.25,17.25,0,0,0,2.7-.2c.73,8.92,6,16,12.25,16.15,3.92.08,7.42-2.58,9.62-6.78,5,8.09,12.07,13.27,20,13.45L155.11,99Z"/>
            </g>
          </g>
          <g>
            <path class="cls-23" d="M156,98.28a.79.79,0,0,0-.79-.79h0a.79.79,0,0,0-.79.79v7.57a.79.79,0,0,0,.79.79h0a.79.79,0,0,0,.79-.79Z"/>
            <g>
              <path class="cls-24" d="M155.23,104.93a1.71,1.71,0,1,1-1.71,1.71A1.72,1.72,0,0,1,155.23,104.93Z"/>
              <path class="cls-25" d="M153.75,106.64a1.48,1.48,0,1,1,1.48,1.47A1.47,1.47,0,0,1,153.75,106.64Z"/>
            </g>
            <path class="cls-26" d="M155.49,106.64a.49.49,0,0,0,.53-.44V.62a.5.5,0,0,0-.53-.45c-.29,0-.53-.33-.53-.08V106.2A.49.49,0,0,0,155.49,106.64Z"/>
            <path class="cls-26" d="M149.21,95.34a2.12,2.12,0,0,1,0-2.4,1,1,0,0,1,.79-.52c1.67-.2,5.13,3.42,5.51,3.83a.33.33,0,0,1,.09.23,11.78,11.78,0,0,0,1.33-.16c2.09-.35,3.46-1.17,3.76-2.24a.35.35,0,0,1,.43-.24.34.34,0,0,1,.24.43c-.37,1.33-1.94,2.34-4.31,2.74a13.9,13.9,0,0,1-2.27.19C152.44,97.2,150.11,96.61,149.21,95.34Zm.86-2.24a.35.35,0,0,0-.25.18,1.46,1.46,0,0,0,0,1.66c.68,1,2.75,1.56,5,1.56-1.37-1.42-3.65-3.4-4.65-3.4Z"/>
          </g>
        </g>
      </g>
    </g>
  </g>
</svg>
