<svg xmlns="http://www.w3.org/2000/svg" xmlns:xlink="http://www.w3.org/1999/xlink" viewBox="0 0 267.28 451.99"><defs><style>.cls-1{mask:url(#mask);}.cls-12,.cls-14,.cls-16,.cls-2,.cls-20,.cls-4,.cls-6,.cls-8{mix-blend-mode:multiply;}.cls-2{fill:url(#radial-gradient);}.cls-3{mask:url(#mask-2);}.cls-4{fill:url(#radial-gradient-2);}.cls-5{mask:url(#mask-3);}.cls-6{fill:url(#radial-gradient-3);}.cls-7{mask:url(#mask-4);}.cls-8{fill:url(#radial-gradient-4);}.cls-9{isolation:isolate;}.cls-10,.cls-12,.cls-14,.cls-16{opacity:0.4;}.cls-11{mask:url(#mask-5);}.cls-12{fill:url(#radial-gradient-5);}.cls-13{mask:url(#mask-6);}.cls-14{fill:url(#radial-gradient-6);}.cls-15{mask:url(#mask-7);}.cls-16{fill:url(#radial-gradient-7);}.cls-17{fill:#fff;}.cls-18{fill:url(#radial-gradient-8);}.cls-19{mask:url(#mask-8);}.cls-20{fill:url(#radial-gradient-9);}.cls-21{fill:url(#radial-gradient-10);}.cls-22{fill:url(#radial-gradient-11);}.cls-23{fill:#d1d2d3;opacity:0.6;}.cls-24{fill:url(#linear-gradient);}.cls-25{fill:url(#radial-gradient-12);}.cls-26{fill:#f1f1f1;}.cls-27{filter:url(#luminosity-noclip-4);}.cls-28{filter:url(#luminosity-noclip-3);}.cls-29{filter:url(#luminosity-noclip-2);}.cls-30{filter:url(#luminosity-noclip);}</style><filter id="luminosity-noclip" x="0" y="-8732" width="153.8" height="32766" filterUnits="userSpaceOnUse" color-interpolation-filters="sRGB"><feFlood flood-color="#fff" result="bg"/><feBlend in="SourceGraphic" in2="bg"/></filter><mask id="mask" x="0" y="-8732" width="153.8" height="32766" maskUnits="userSpaceOnUse"><g class="cls-30"/></mask><radialGradient id="radial-gradient" cx="-36.3" cy="255.71" r="66.35" gradientTransform="matrix(1.16, 0.03, -0.02, 0.89, 124.05, 131.44)" gradientUnits="userSpaceOnUse"><stop offset="0.09" stop-color="#fff"/><stop offset="0.17" stop-color="#f3f3f3"/><stop offset="0.32" stop-color="#d1d1d1"/><stop offset="0.52" stop-color="#9c9c9c"/><stop offset="0.76" stop-color="#515151"/><stop offset="1"/></radialGradient><filter id="luminosity-noclip-2" x="86.44" y="-8732" width="153.8" height="32766" filterUnits="userSpaceOnUse" color-interpolation-filters="sRGB"><feFlood flood-color="#fff" result="bg"/><feBlend in="SourceGraphic" in2="bg"/></filter><mask id="mask-2" x="86.44" y="-8732" width="153.8" height="32766" maskUnits="userSpaceOnUse"><g class="cls-29"/></mask><radialGradient id="radial-gradient-2" cx="38.22" cy="253.24" r="66.35" xlink:href="#radial-gradient"/><filter id="luminosity-noclip-3" x="47.66" y="-8732" width="153.83" height="32766" filterUnits="userSpaceOnUse" color-interpolation-filters="sRGB"><feFlood flood-color="#fff" result="bg"/><feBlend in="SourceGraphic" in2="bg"/></filter><mask id="mask-3" x="47.66" y="-8732" width="153.83" height="32766" maskUnits="userSpaceOnUse"><g class="cls-28"/></mask><radialGradient id="radial-gradient-3" cx="5.31" cy="258.13" r="66.35" gradientTransform="matrix(1.16, 0.03, -0.03, 1.44, 126.7, -14.19)" xlink:href="#radial-gradient"/><filter id="luminosity-noclip-4" x="63.98" y="-8732" width="162.55" height="32766" filterUnits="userSpaceOnUse" color-interpolation-filters="sRGB"><feFlood flood-color="#fff" result="bg"/><feBlend in="SourceGraphic" in2="bg"/></filter><mask id="mask-4" x="63.98" y="-8732" width="162.55" height="32766" maskUnits="userSpaceOnUse"><g class="cls-27"/></mask><radialGradient id="radial-gradient-4" cx="-61.42" cy="321.71" r="57.5" gradientTransform="matrix(1.41, 0.03, -0.02, 1.09, 239.87, -64.44)" gradientUnits="userSpaceOnUse"><stop offset="0" stop-color="#fff"/><stop offset="0.09" stop-color="#f3f3f3"/><stop offset="0.25" stop-color="#d3d3d3"/><stop offset="0.46" stop-color="#a0a0a0"/><stop offset="0.71" stop-color="#595959"/><stop offset="1"/></radialGradient><mask id="mask-5" x="0" y="298.79" width="153.8" height="118.06" maskUnits="userSpaceOnUse"><g class="cls-1"><path class="cls-2" d="M153.79,359.63c.72-32.7-33.08-59.87-75.62-60.81S.75,323.48,0,356.19c-.73,32.54,33.08,59.69,75.53,60.64S153.06,392.16,153.79,359.63Z"/></g></mask><radialGradient id="radial-gradient-5" cx="-36.3" cy="255.71" r="66.35" gradientTransform="matrix(1.16, 0.03, -0.02, 0.89, 124.05, 131.44)" gradientUnits="userSpaceOnUse"><stop offset="0.27" stop-color="#7287a0"/><stop offset="0.67" stop-color="#bec8d3"/><stop offset="1" stop-color="#fff"/></radialGradient><mask id="mask-6" x="86.44" y="298.53" width="153.8" height="118.06" maskUnits="userSpaceOnUse"><g class="cls-3"><path class="cls-4" d="M240.23,359.38c.72-32.71-33.09-59.88-75.63-60.83s-77.41,24.67-78.15,57.38c-.72,32.53,33.09,59.68,75.53,60.64S239.5,391.91,240.23,359.38Z"/></g></mask><radialGradient id="radial-gradient-6" cx="38.22" cy="253.24" r="66.35" xlink:href="#radial-gradient-5"/><mask id="mask-7" x="47.66" y="261.31" width="153.83" height="190.69" maskUnits="userSpaceOnUse"><g class="cls-5"><path class="cls-6" d="M201.46,358.53c1.17-52.83-32.27-96.25-74.81-97.21s-77.78,40.92-79,93.75C46.51,407.64,80,451,122.4,452S200.28,411.07,201.46,358.53Z"/></g></mask><radialGradient id="radial-gradient-7" cx="5.31" cy="258.13" r="66.35" gradientTransform="matrix(1.16, 0.03, -0.03, 1.44, 126.7, -14.19)" xlink:href="#radial-gradient-5"/><radialGradient id="radial-gradient-8" cx="184.29" cy="273.29" r="145.82" gradientTransform="translate(10.38 -0.51) rotate(1.28)" gradientUnits="userSpaceOnUse"><stop offset="0" stop-color="#fff"/><stop offset="0.36" stop-color="#f2f2f2"/><stop offset="1" stop-color="#d1d2d2"/></radialGradient><mask id="mask-8" x="63.98" y="220.36" width="162.55" height="124.89" maskUnits="userSpaceOnUse"><g class="cls-7"><path class="cls-8" d="M226.51,284.62c.76-34.5-35-63.24-79.87-64.23S64.75,246.49,64,281s35,63.26,79.85,64.26S225.73,319.14,226.51,284.62Z"/></g></mask><radialGradient id="radial-gradient-9" cx="-61.42" cy="321.71" r="57.5" gradientTransform="matrix(1.41, 0.03, -0.02, 1.09, 239.87, -64.44)" gradientUnits="userSpaceOnUse"><stop offset="0" stop-color="#221f1f"/><stop offset="0.1" stop-color="#2e2b2b"/><stop offset="0.27" stop-color="#4d4b4b"/><stop offset="0.51" stop-color="#807e7e"/><stop offset="0.78" stop-color="#c5c4c4"/><stop offset="1" stop-color="#fff"/></radialGradient><radialGradient id="radial-gradient-10" cx="591.13" cy="257.33" r="138.17" gradientTransform="matrix(0.74, 0.02, -0.02, 1, -229.05, -5.63)" gradientUnits="userSpaceOnUse"><stop offset="0" stop-color="#f2f2f0"/><stop offset="1" stop-color="#dadad9"/></radialGradient><radialGradient id="radial-gradient-11" cx="172.77" cy="280.31" r="127.12" gradientTransform="translate(10.38 -0.51) rotate(1.28)" gradientUnits="userSpaceOnUse"><stop offset="0" stop-color="#fff"/><stop offset="0.68" stop-color="#f2f2f2"/><stop offset="1" stop-color="#ebebea"/></radialGradient><linearGradient id="linear-gradient" x1="-652.51" y1="218.83" x2="-648.87" y2="218.83" gradientTransform="matrix(-1, 0, 0, 1, -485.02, 0)" gradientUnits="userSpaceOnUse"><stop offset="0" stop-color="#c1c2c1"/><stop offset="0.27" stop-color="#d3d3d2"/><stop offset="0.72" stop-color="#eaeae8"/><stop offset="1" stop-color="#f2f2f0"/></linearGradient><radialGradient id="radial-gradient-12" cx="-650.07" cy="219.59" r="3.28" gradientTransform="matrix(-1, 0, 0, 1, -485.02, 0)" gradientUnits="userSpaceOnUse"><stop offset="0.04" stop-color="#c8cedc"/><stop offset="0.21" stop-color="#c3cbd9"/><stop offset="0.41" stop-color="#b5c2d0"/><stop offset="0.62" stop-color="#9db4c2"/><stop offset="0.85" stop-color="#7da0ae"/><stop offset="0.97" stop-color="#6793a1"/></radialGradient></defs><title>Asset 7</title><g class="cls-9"><g id="Layer_2" data-name="Layer 2"><g id="Layer_1-2" data-name="Layer 1"><g class="cls-10"><g class="cls-11"><path class="cls-12" d="M153.79,359.63c.72-32.7-33.08-59.87-75.62-60.81S.75,323.48,0,356.19c-.73,32.54,33.08,59.69,75.53,60.64S153.06,392.16,153.79,359.63Z"/></g><g class="cls-13"><path class="cls-14" d="M240.23,359.38c.72-32.71-33.09-59.88-75.63-60.83s-77.41,24.67-78.15,57.38c-.72,32.53,33.09,59.68,75.53,60.64S239.5,391.91,240.23,359.38Z"/></g><g class="cls-15"><path class="cls-16" d="M201.46,358.53c1.17-52.83-32.27-96.25-74.81-97.21s-77.78,40.92-79,93.75C46.51,407.64,80,451,122.4,452S200.28,411.07,201.46,358.53Z"/></g></g><path class="cls-17" d="M258.15,259.58a33,33,0,0,0-22.72-10.32,24.32,24.32,0,0,0-21.2-15.36,16.26,16.26,0,0,0-24.91-13.63,28.54,28.54,0,0,0-21.44-10.42h-1l-.67,0a28.76,28.76,0,0,0-21.94,9.45,16.31,16.31,0,0,0-25.54,12.5,24.34,24.34,0,0,0-21.85,14.41A33.28,33.28,0,0,0,96,312.71a35.67,35.67,0,0,0,3.72-.13,19.34,19.34,0,0,0,33.92,10.49,42.05,42.05,0,0,0,61.7,1.36,19.32,19.32,0,0,0,34.34-8.95,30.9,30.9,0,0,0,3.71.29,33.29,33.29,0,0,0,33.93-32.58A32.94,32.94,0,0,0,258.15,259.58Zm-24.78,55.14a33.84,33.84,0,0,1-4.12-.35l-.53-.09-.06.55a18.28,18.28,0,0,1-32.9,8.49l-.37-.53-.43.48a41.06,41.06,0,0,1-61-1.35l-.41-.49-.41.49a18.27,18.27,0,0,1-32.48-10l-.05-.55-.53.06a33.58,33.58,0,0,1-4.12.18,32.22,32.22,0,0,1,1.19-64.43h.35l.13-.32a23.22,23.22,0,0,1,21.55-14.09h.51l0-.53A15.23,15.23,0,0,1,144,220.4l.39.29.32-.37a27.63,27.63,0,0,1,21.44-9.45l.62,0h1.1a27.52,27.52,0,0,1,20.94,10.4l.31.38.41-.27a15.21,15.21,0,0,1,23.66,13v.52h.51a23.22,23.22,0,0,1,20.89,15l.13.34h.35a32.22,32.22,0,0,1-1.68,64.42Z"/><path class="cls-18" d="M235.06,249.78a23.76,23.76,0,0,0-21.34-15.38h0A15.75,15.75,0,0,0,189.21,221a28,28,0,0,0-21.34-10.59H167c-.29,0-.57,0-.86,0A28.16,28.16,0,0,0,144.3,220a15.76,15.76,0,0,0-25.1,12.3h0a23.78,23.78,0,0,0-22,14.41,32.74,32.74,0,1,0,3,65.3,18.81,18.81,0,0,0,33.42,10.25,41.53,41.53,0,0,0,61.76,1.37,18.8,18.8,0,0,0,33.84-8.74,35.3,35.3,0,0,0,4.17.38,32.75,32.75,0,0,0,1.71-65.48Z"/><g class="cls-19"><path class="cls-20" d="M226.51,284.62c.76-34.5-35-63.24-79.87-64.23S64.75,246.49,64,281s35,63.26,79.85,64.26S225.73,319.14,226.51,284.62Z"/></g><path class="cls-17" d="M230.2,259.13c-4.19-6.34-9.86-9.92-16-10.09-2.43-9-8.31-15-15-15.27-.05-8.88-5-16.05-11.26-16.06a9.3,9.3,0,0,0-6.42,2.79c-3.82-6.47-9.4-10.16-15.36-10.16l-.47,0-.4,0-.17,128.7h.23c8,.19,15.77-4.67,21.27-13.32,2.48,4.7,6.19,7.44,10.22,7.53,6.72.14,12.4-7.12,13.33-16.92a16.13,16.13,0,0,0,2.67.28c12.57.22,23.16-14.82,23.57-33.6C236.61,274,234.41,265.55,230.2,259.13Z"/><path class="cls-17" d="M165.39,210.36l-.46,0c-6,0-11.58,3.69-15.43,10.11a9.31,9.31,0,0,0-6.44-2.78c-6.24,0-11.27,7.06-11.32,15.85-6.75.25-12.65,6.07-15.1,14.9-6.12.09-11.8,3.52-16,9.67s-6.45,14.45-6.28,23.22c.37,18.32,10.9,33.4,23.49,33.61a14.87,14.87,0,0,0,2.66-.18c.91,9.68,6.58,17.07,13.29,17.21,4,.08,7.77-2.48,10.27-7,5.51,8.83,13.26,14,21.28,14.17h.25l.2-128.71Z"/><path class="cls-21" d="M186.63,325.18c2.32,4.62,6,7.66,10.2,7.74,6.71.15,12.33-7.3,13.12-16.95a18.39,18.39,0,0,0,2.89.32c12.47.23,22.92-14.65,23.32-33.24.41-18.43-9.48-33.44-22.1-33.65-2.32-8.83-8.16-15.1-15.12-15.28h0c.09-8.86-4.84-16-11-16.05a9.18,9.18,0,0,0-6.46,2.9c-3.63-6.28-9.14-10.27-15.32-10.27l-.61,0-.19,128C173.76,338.9,181.35,333.67,186.63,325.18Z"/><path class="cls-22" d="M164.92,210.7c-6.18,0-11.72,4-15.38,10.22a9.19,9.19,0,0,0-6.48-2.89c-6.2,0-11.15,7.08-11.07,15.83h0c-7,.12-12.84,6.25-15.19,14.9-12.63.06-22.55,14.58-22.2,32.55.37,18.14,10.76,33,23.23,33.25a17.41,17.41,0,0,0,2.89-.2c.77,9.51,6.36,17.08,13.07,17.23,4.19.08,7.91-2.75,10.26-7.24,5.29,8.64,12.88,14.17,21.3,14.36l.19-128Z"/><path class="cls-23" d="M166.51,209.9a.84.84,0,0,0-.85-.84h0a.85.85,0,0,0-.84.84V218a.85.85,0,0,0,.84.85h0a.84.84,0,0,0,.85-.85Z"/><path class="cls-24" d="M165.66,217a1.82,1.82,0,1,1-1.82,1.82A1.83,1.83,0,0,1,165.66,217Z"/><path class="cls-25" d="M164.09,218.83a1.58,1.58,0,1,1,1.57,1.57A1.57,1.57,0,0,1,164.09,218.83Z"/><path class="cls-26" d="M165.94,218.83a.53.53,0,0,0,.57-.47V.47a.53.53,0,0,0-.57-.47.52.52,0,0,0-.56.47V218.36A.52.52,0,0,0,165.94,218.83Z"/><path class="cls-26" d="M159.25,206.76a2.23,2.23,0,0,1,0-2.56,1,1,0,0,1,.83-.55c1.79-.21,5.48,3.64,5.89,4.09a.37.37,0,0,1,.09.25c.48,0,1-.1,1.42-.17,2.23-.38,3.7-1.26,4-2.4a.38.38,0,0,1,.72.21c-.4,1.42-2.08,2.49-4.6,2.92a14.63,14.63,0,0,1-2.42.2C162.7,208.75,160.2,208.12,159.25,206.76Zm.91-2.38a.36.36,0,0,0-.26.19,1.55,1.55,0,0,0-.05,1.77c.73,1,2.93,1.67,5.35,1.67-1.46-1.52-3.88-3.63-4.95-3.63Z"/></g></g></g></svg>