<svg xmlns="http://www.w3.org/2000/svg" xmlns:xlink="http://www.w3.org/1999/xlink" viewBox="0 0 200.47 578.65"><defs><style>.cls-1{mask:url(#mask);}.cls-12,.cls-14,.cls-16,.cls-2,.cls-20,.cls-4,.cls-6,.cls-8{mix-blend-mode:multiply;}.cls-2{fill:url(#radial-gradient);}.cls-3{mask:url(#mask-2);}.cls-4{fill:url(#radial-gradient-2);}.cls-5{mask:url(#mask-3);}.cls-6{fill:url(#radial-gradient-3);}.cls-7{mask:url(#mask-4);}.cls-8{fill:url(#radial-gradient-4);}.cls-9{isolation:isolate;}.cls-10,.cls-23{opacity:0.6;}.cls-11{mask:url(#mask-5);}.cls-12,.cls-14,.cls-16{opacity:0.4;}.cls-12{fill:url(#radial-gradient-5);}.cls-13{mask:url(#mask-6);}.cls-14{fill:url(#radial-gradient-6);}.cls-15{mask:url(#mask-7);}.cls-16{fill:url(#radial-gradient-7);}.cls-17{fill:#fff;}.cls-18{fill:url(#radial-gradient-8);}.cls-19{mask:url(#mask-8);}.cls-20{fill:url(#radial-gradient-9);}.cls-21{fill:url(#radial-gradient-10);}.cls-22{fill:url(#radial-gradient-11);}.cls-23{fill:#d1d2d3;}.cls-24{fill:url(#linear-gradient);}.cls-25{fill:url(#radial-gradient-12);}.cls-26{fill:#f1f1f1;}.cls-27{filter:url(#luminosity-noclip-4);}.cls-28{filter:url(#luminosity-noclip-3);}.cls-29{filter:url(#luminosity-noclip-2);}.cls-30{filter:url(#luminosity-noclip);}</style><filter id="luminosity-noclip" x="0" y="-8732" width="119.53" height="32766" filterUnits="userSpaceOnUse" color-interpolation-filters="sRGB"><feFlood flood-color="#fff" result="bg"/><feBlend in="SourceGraphic" in2="bg"/></filter><mask id="mask" x="0" y="-8732" width="119.53" height="32766" maskUnits="userSpaceOnUse"><g class="cls-30"/></mask><radialGradient id="radial-gradient" cx="-18.67" cy="427.52" r="51.57" gradientTransform="matrix(1.16, 0.03, -0.02, 0.89, 89.87, 125.88)" gradientUnits="userSpaceOnUse"><stop offset="0.09" stop-color="#fff"/><stop offset="0.17" stop-color="#f3f3f3"/><stop offset="0.32" stop-color="#d1d1d1"/><stop offset="0.52" stop-color="#9c9c9c"/><stop offset="0.76" stop-color="#515151"/><stop offset="1"/></radialGradient><filter id="luminosity-noclip-2" x="67.18" y="-8732" width="119.52" height="32766" filterUnits="userSpaceOnUse" color-interpolation-filters="sRGB"><feFlood flood-color="#fff" result="bg"/><feBlend in="SourceGraphic" in2="bg"/></filter><mask id="mask-2" x="67.18" y="-8732" width="119.52" height="32766" maskUnits="userSpaceOnUse"><g class="cls-29"/></mask><radialGradient id="radial-gradient-2" cx="39.25" cy="425.61" r="51.57" xlink:href="#radial-gradient"/><filter id="luminosity-noclip-3" x="37.03" y="-8732" width="119.56" height="32766" filterUnits="userSpaceOnUse" color-interpolation-filters="sRGB"><feFlood flood-color="#fff" result="bg"/><feBlend in="SourceGraphic" in2="bg"/></filter><mask id="mask-3" x="37.03" y="-8732" width="119.56" height="32766" maskUnits="userSpaceOnUse"><g class="cls-28"/></mask><radialGradient id="radial-gradient-3" cx="13.8" cy="364.83" r="51.57" gradientTransform="matrix(1.16, 0.03, -0.03, 1.44, 92.52, -19.73)" xlink:href="#radial-gradient"/><filter id="luminosity-noclip-4" x="42.46" y="-8732" width="126.32" height="32766" filterUnits="userSpaceOnUse" color-interpolation-filters="sRGB"><feFlood flood-color="#fff" result="bg"/><feBlend in="SourceGraphic" in2="bg"/></filter><mask id="mask-4" x="42.46" y="-8732" width="126.32" height="32766" maskUnits="userSpaceOnUse"><g class="cls-27"/></mask><radialGradient id="radial-gradient-4" cx="-23.93" cy="481.14" r="44.69" gradientTransform="matrix(1.41, 0.03, -0.02, 1.09, 151.14, -71.2)" gradientUnits="userSpaceOnUse"><stop offset="0" stop-color="#fff"/><stop offset="0.09" stop-color="#f3f3f3"/><stop offset="0.25" stop-color="#d3d3d3"/><stop offset="0.46" stop-color="#a0a0a0"/><stop offset="0.71" stop-color="#595959"/><stop offset="1"/></radialGradient><mask id="mask-5" x="0" y="459.58" width="119.53" height="91.76" maskUnits="userSpaceOnUse"><g class="cls-1"><path class="cls-2" d="M119.52,506.88c.56-25.42-25.71-46.54-58.77-47.28S.58,478.78,0,504.2s25.71,46.38,58.7,47.12S119,532.15,119.52,506.88Z"/></g></mask><radialGradient id="radial-gradient-5" cx="-18.67" cy="427.52" r="51.57" gradientTransform="matrix(1.16, 0.03, -0.02, 0.89, 89.87, 125.88)" gradientUnits="userSpaceOnUse"><stop offset="0.27" stop-color="#7287a0"/><stop offset="0.67" stop-color="#bec8d3"/><stop offset="1" stop-color="#fff"/></radialGradient><mask id="mask-6" x="67.18" y="459.38" width="119.52" height="91.76" maskUnits="userSpaceOnUse"><g class="cls-3"><path class="cls-4" d="M186.69,506.67c.57-25.42-25.71-46.53-58.77-47.27S67.76,478.57,67.19,504c-.57,25.27,25.71,46.38,58.7,47.12S186.13,532,186.69,506.67Z"/></g></mask><radialGradient id="radial-gradient-6" cx="39.25" cy="425.61" r="51.57" xlink:href="#radial-gradient-5"/><mask id="mask-7" x="37.03" y="430.46" width="119.56" height="148.19" maskUnits="userSpaceOnUse"><g class="cls-5"><path class="cls-6" d="M156.57,506c.91-41.06-25.08-74.81-58.14-75.54S38,462.26,37.06,503.32c-.91,40.86,25.08,74.57,58.06,75.32S155.65,546.84,156.57,506Z"/></g></mask><radialGradient id="radial-gradient-7" cx="13.8" cy="364.83" r="51.57" gradientTransform="matrix(1.16, 0.03, -0.03, 1.44, 92.52, -19.73)" xlink:href="#radial-gradient-5"/><radialGradient id="radial-gradient-8" cx="138.87" cy="447.93" r="113.32" gradientTransform="translate(10.43 -5.3) rotate(1.28)" gradientUnits="userSpaceOnUse"><stop offset="0" stop-color="#fff"/><stop offset="0.36" stop-color="#f2f2f2"/><stop offset="1" stop-color="#d1d2d2"/></radialGradient><mask id="mask-8" x="42.46" y="401.75" width="126.32" height="97.06" maskUnits="userSpaceOnUse"><g class="cls-7"><path class="cls-8" d="M168.78,451.68c.59-26.8-27.18-49.14-62.07-49.91s-63.64,20.28-64.24,47.08S69.65,498,104.53,498.79,168.18,478.51,168.78,451.68Z"/></g></mask><radialGradient id="radial-gradient-9" cx="-23.93" cy="481.14" r="44.69" gradientTransform="matrix(1.41, 0.03, -0.02, 1.09, 151.14, -71.2)" gradientUnits="userSpaceOnUse"><stop offset="0" stop-color="#221f1f"/><stop offset="0.1" stop-color="#2e2b2b"/><stop offset="0.27" stop-color="#4d4b4b"/><stop offset="0.51" stop-color="#807e7e"/><stop offset="0.78" stop-color="#c5c4c4"/><stop offset="1" stop-color="#fff"/></radialGradient><radialGradient id="radial-gradient-10" cx="449.93" cy="435.48" r="107.38" gradientTransform="matrix(0.74, 0.02, -0.02, 1, -173.01, -9.17)" gradientUnits="userSpaceOnUse"><stop offset="0" stop-color="#f2f2f0"/><stop offset="1" stop-color="#dadad9"/></radialGradient><radialGradient id="radial-gradient-11" cx="129.91" cy="453.38" r="98.8" gradientTransform="translate(10.43 -5.3) rotate(1.28)" gradientUnits="userSpaceOnUse"><stop offset="0" stop-color="#fff"/><stop offset="0.68" stop-color="#f2f2f2"/><stop offset="1" stop-color="#ebebea"/></radialGradient><linearGradient id="linear-gradient" x1="-178.56" y1="400.55" x2="-175.72" y2="400.55" gradientTransform="matrix(-1, 0, 0, 1, -55.64, 0)" gradientUnits="userSpaceOnUse"><stop offset="0" stop-color="#c1c2c1"/><stop offset="0.27" stop-color="#d3d3d2"/><stop offset="0.72" stop-color="#eaeae8"/><stop offset="1" stop-color="#f2f2f0"/></linearGradient><radialGradient id="radial-gradient-12" cx="-176.65" cy="401.15" r="2.55" gradientTransform="matrix(-1, 0, 0, 1, -55.64, 0)" gradientUnits="userSpaceOnUse"><stop offset="0.04" stop-color="#c8cedc"/><stop offset="0.21" stop-color="#c3cbd9"/><stop offset="0.41" stop-color="#b5c2d0"/><stop offset="0.62" stop-color="#9db4c2"/><stop offset="0.85" stop-color="#7da0ae"/><stop offset="0.97" stop-color="#6793a1"/></radialGradient></defs><title>Asset 6</title><g class="cls-9"><g id="Layer_2" data-name="Layer 2"><g id="Layer_1-2" data-name="Layer 1"><g class="cls-10"><g class="cls-11"><path class="cls-12" d="M119.52,506.88c.56-25.42-25.71-46.54-58.77-47.28S.58,478.78,0,504.2s25.71,46.38,58.7,47.12S119,532.15,119.52,506.88Z"/></g><g class="cls-13"><path class="cls-14" d="M186.69,506.67c.57-25.42-25.71-46.53-58.77-47.27S67.76,478.57,67.19,504c-.57,25.27,25.71,46.38,58.7,47.12S186.13,532,186.69,506.67Z"/></g><g class="cls-15"><path class="cls-16" d="M156.57,506c.91-41.06-25.08-74.81-58.14-75.54S38,462.26,37.06,503.32c-.91,40.86,25.08,74.57,58.06,75.32S155.65,546.84,156.57,506Z"/></g></g><path class="cls-17" d="M193.37,432.23a25.58,25.58,0,0,0-17.66-8,18.89,18.89,0,0,0-16.47-11.94,12.63,12.63,0,0,0-19.36-10.59,22.19,22.19,0,0,0-16.66-8.1h-.83l-.51,0a22.32,22.32,0,0,0-17,7.34A12.67,12.67,0,0,0,85,410.61,18.92,18.92,0,0,0,68,421.8a25.86,25.86,0,1,0,2.21,51.61,15,15,0,0,0,26.36,8.16,32.67,32.67,0,0,0,48,1.06,15,15,0,0,0,26.68-7,25.57,25.57,0,0,0,2.89.23,25.89,25.89,0,0,0,26.37-25.33A25.57,25.57,0,0,0,193.37,432.23Zm-19.26,42.85a26.76,26.76,0,0,1-3.2-.28l-.41-.06-.05.42a14.2,14.2,0,0,1-25.56,6.6l-.29-.4-.34.36a31.88,31.88,0,0,1-47.39-1.05l-.32-.38-.31.39A14.21,14.21,0,0,1,71,472.93l0-.43-.41.06a26.35,26.35,0,0,1-3.2.13,25,25,0,0,1,.92-50.07h.27l.11-.25a18,18,0,0,1,16.74-10.95h.4V411a11.83,11.83,0,0,1,18.85-9.24l.31.22.25-.29a21.49,21.49,0,0,1,16.67-7.34l.47,0h.86a21.36,21.36,0,0,1,16.28,8.08l.24.29.31-.21a11.83,11.83,0,0,1,18.39,10.09v.4h.4A18,18,0,0,1,175,424.75l.1.26h.28a25,25,0,0,1-1.31,50.06Z"/><path class="cls-18" d="M175.43,424.61a18.5,18.5,0,0,0-16.59-12h0a12.23,12.23,0,0,0-19-10.43A21.78,21.78,0,0,0,123.21,394h-.67l-.67,0a21.83,21.83,0,0,0-17,7.49A12.24,12.24,0,0,0,85.38,411h0a18.46,18.46,0,0,0-17.11,11.2,25.44,25.44,0,0,0-.94,50.88,23.3,23.3,0,0,0,3.25-.14,14.62,14.62,0,0,0,26,8,32.29,32.29,0,0,0,48,1.07,14.6,14.6,0,0,0,26.29-6.8,26.7,26.7,0,0,0,3.25.29,25.45,25.45,0,0,0,1.33-50.88Z"/><g class="cls-19"><path class="cls-20" d="M168.78,451.68c.59-26.8-27.18-49.14-62.07-49.91s-63.64,20.28-64.24,47.08S69.65,498,104.53,498.79,168.18,478.51,168.78,451.68Z"/></g><path class="cls-17" d="M171.65,431.88c-3.26-4.93-7.66-7.72-12.41-7.85-1.89-7-6.46-11.62-11.69-11.86,0-6.9-3.92-12.48-8.75-12.48a7.19,7.19,0,0,0-5,2.16c-3-5-7.31-7.89-11.94-7.89h-.37l-.3,0-.14,100h.19c6.24.14,12.24-3.64,16.52-10.37,1.93,3.66,4.81,5.79,7.95,5.86,5.22.11,9.63-5.53,10.36-13.15a12.13,12.13,0,0,0,2.07.22c9.77.17,18-11.52,18.32-26.11A32.81,32.81,0,0,0,171.65,431.88Z"/><path class="cls-17" d="M121.28,394h-.36c-4.63,0-9,2.86-12,7.85a7.23,7.23,0,0,0-5-2.16c-4.86,0-8.76,5.49-8.8,12.32-5.25.2-9.83,4.72-11.74,11.59-4.76.06-9.17,2.73-12.44,7.51a31.09,31.09,0,0,0-4.87,18c.28,14.24,8.46,26,18.25,26.13a13,13,0,0,0,2.06-.14c.71,7.53,5.11,13.26,10.33,13.37,3.14.07,6-1.92,8-5.47,4.28,6.86,10.3,10.88,16.54,11h.19l.15-100Z"/><path class="cls-21" d="M137.79,483.21c1.8,3.6,4.68,6,7.93,6,5.21.11,9.57-5.68,10.19-13.18a12.9,12.9,0,0,0,2.24.24c9.7.18,17.82-11.37,18.13-25.82s-7.36-26-17.18-26.16c-1.8-6.86-6.34-11.73-11.75-11.87h0c.07-6.89-3.75-12.47-8.55-12.47a7.13,7.13,0,0,0-5,2.25c-2.83-4.88-7.1-8-11.91-8l-.48,0-.14,99.47C127.78,493.88,133.68,489.81,137.79,483.21Z"/><path class="cls-22" d="M120.91,394.24c-4.8,0-9.1,3.09-12,7.94a7.15,7.15,0,0,0-5-2.25c-4.81,0-8.67,5.51-8.61,12.31h0c-5.42.1-10,4.86-11.8,11.59-9.82,0-17.52,11.32-17.25,25.29s8.36,25.67,18,25.85a12.85,12.85,0,0,0,2.24-.17c.6,7.41,5,13.29,10.16,13.4,3.26.07,6.15-2.15,8-5.62,4.11,6.7,10,11,16.55,11.15l.14-99.47Z"/><path class="cls-23" d="M122.15,393.62a.64.64,0,0,0-.65-.65h0a.64.64,0,0,0-.66.65v6.28a.65.65,0,0,0,.66.65h0a.65.65,0,0,0,.65-.65Z"/><path class="cls-24" d="M121.5,399.14a1.42,1.42,0,1,1-1.42,1.41A1.42,1.42,0,0,1,121.5,399.14Z"/><path class="cls-25" d="M120.27,400.55a1.23,1.23,0,1,1,1.23,1.23A1.23,1.23,0,0,1,120.27,400.55Z"/><path class="cls-26" d="M121.71,400.55a.4.4,0,0,0,.44-.36V.37a.45.45,0,0,0-.88,0V400.19A.4.4,0,0,0,121.71,400.55Z"/><path class="cls-26" d="M116.51,391.18a1.73,1.73,0,0,1,0-2,.81.81,0,0,1,.64-.43c1.39-.16,4.26,2.83,4.58,3.18a.26.26,0,0,1,.07.19c.37,0,.74-.07,1.11-.13,1.73-.3,2.87-1,3.11-1.86a.29.29,0,0,1,.36-.2.27.27,0,0,1,.2.35c-.31,1.11-1.61,1.94-3.58,2.28a11.42,11.42,0,0,1-1.87.15C119.19,392.72,117.24,392.23,116.51,391.18Zm.71-1.85a.29.29,0,0,0-.21.14,1.2,1.2,0,0,0,0,1.38c.56.8,2.27,1.29,4.15,1.29-1.13-1.17-3-2.81-3.84-2.81Z"/></g></g></g></svg>