<svg xmlns="http://www.w3.org/2000/svg" xmlns:xlink="http://www.w3.org/1999/xlink" viewBox="0 0 1920 717.76"><defs><style>.cls-1{fill:url(#linear-gradient);}.cls-2{fill:url(#radial-gradient);}</style><linearGradient id="linear-gradient" x1="941.02" y1="663.09" x2="833.01" y2="876.11" gradientUnits="userSpaceOnUse"><stop offset="0" stop-color="#ef6e61"/><stop offset="1" stop-color="#ff436d"/></linearGradient><radialGradient id="radial-gradient" cx="954.04" cy="401" r="374.47" gradientUnits="userSpaceOnUse"><stop offset="0.06" stop-color="#e07a5f"/><stop offset="0.57" stop-color="#e06e55"/><stop offset="0.6" stop-color="#e06d54"/><stop offset="1" stop-color="#e0644c"/></radialGradient></defs><title>mounty-1</title><g id="Layer_2" data-name="Layer 2"><g id="Layer_1-2" data-name="Layer 1"><path class="cls-1" d="M0,533.53S293.57,369.17,308.06,346.31s66.09-104.49,66.09-104.49S455.81,127.53,481.61,98.14,593.37.18,593.37.18,645,23,657.84,36.1s38.69,91.43,77.37,127.35S855.57,281,877.07,307.13s107.46,55.51,202,81.63,236.41,32.66,249.31,35.92,183.19,9.8,254.93,26.13S1920,486.73,1920,486.73v231H0Z"/><path class="cls-2" d="M877.07,427,1202.87,451s358.08-4.68,348.65-6.17l-.07,0c-80.9-12.14-211.8-17.48-223-20.32-12.9-3.27-154.75-9.8-249.31-35.92s-180.54-55.52-202-81.64S773.9,199.19,735.21,163.27,670.74,49,657.84,35.92,593.37,0,593.37,0l63.4,226.13Z"/></g></g></svg>