<svg xmlns="http://www.w3.org/2000/svg" xmlns:xlink="http://www.w3.org/1999/xlink" viewBox="0 0 1246.95 773.08"><defs><style>.cls-1{fill:url(#radial-gradient);}.cls-2{fill:url(#linear-gradient);}</style><radialGradient id="radial-gradient" cx="467.95" cy="-275.95" r="949.71" gradientUnits="userSpaceOnUse"><stop offset="0" stop-color="#fede63"/><stop offset="0.44" stop-color="#f2b561"/><stop offset="1" stop-color="#e07a5f"/></radialGradient><linearGradient id="linear-gradient" x1="594.5" y1="727.18" x2="879.52" y2="193.13" gradientUnits="userSpaceOnUse"><stop offset="0" stop-color="#ef6964"/><stop offset="0.52" stop-color="#de7759"/><stop offset="1" stop-color="#d48052"/></linearGradient></defs><title>mounty-3</title><g id="Layer_2" data-name="Layer 2"><g id="Layer_1-2" data-name="Layer 1"><path class="cls-1" d="M1175.47,96.41C1166.87,76.82,1129.62-8.08,1101,.62S1023.59,120.36,997.8,129.07s-40.12,15.24-57.32,26.12S794.34,381.6,745.62,394.66c-43,11.53-160.22,64.31-186.94,76.45l-5.48,2.49,5.15.58-6.9-.56-16,10.43-48.75,27L367,595.52,0,773.08H1247V222.68S1184.07,116,1175.47,96.41Z"/><path class="cls-2" d="M1147,697.05l-58.34-135-3-24-3.74-6.17,5.4.52,4.34-24-77.38-50.61s-2.15-63.68,0-93.07,36.54-50.61,47.29-57.14,10.74-24.49,6.45-34.6-15-29.08-17.2-34,15-52.24,15-52.24h70.92L1111,150.84l-8.6-18-8.59-27.76,8.59-27.75-8.59-44.09,16.65-32.23A15.78,15.78,0,0,0,1101,.62c-28.66,8.71-77.37,119.74-103.16,128.45s-40.12,15.24-57.32,26.12S794.34,381.6,745.62,394.66c-39.91,10.7-143.56,56.85-179.73,73.18l-16.38,7-52,30.17-44.39,29.47-82,58-34.81,17.77L227.77,664.39l-103.2,48.42L40.08,753.69,0,773.08H1140l-10.26-7Z"/></g></g></svg>