<svg xmlns="http://www.w3.org/2000/svg" viewBox="0 0 1622.11 575.81"><defs><style>.cls-1{fill:#f08663;}.cls-2{fill:#dd7c5e;}</style></defs><title>mounty-2</title><g id="Layer_2" data-name="Layer 2"><g id="Layer_1-2" data-name="Layer 1"><path class="cls-1" d="M1534.47,533.38l-63.85-92.45-121.49-46.65L1179.2,318.82l-76-42-47.86-36.9h0s-33.22-38.87-48.27-48.67-73.07-18-73.07-18S908.24,139,886.74,126.75s-51.58-35.11-58.11-55-21.41-32.34-40.75-48.66S762.09-1.43,749.19.2s-88.12,42.46-98.86,53.89-4.3,31-15.05,34.28-46.93,33.8-46.93,33.8l-19.87,35.94-45.59,33.14L449.45,276.8,345.68,344.71,161.14,413.92,0,575.81H1622.11Z"/><path class="cls-2" d="M1111.24,281.22l-26.5-18.58-33.06-27c-9.08-10.36-32.6-36.6-44.58-44.41-15-9.79-73.07-18-73.07-18S908.24,139,886.74,126.75s-51.58-35.11-58.11-55-21.41-32.34-40.75-48.67C771.94,9.61,764.61,2.07,755.36.62c1.43,8.64,3.65,18.47,6.73,20.81,5.73,4.36,0,18.5,0,18.5l11.54,55.79v29.12l10,26.12,21.49,32.65L861,211.91l18.63,35.92,38.69,9.8,1.54,6.36c21.32,3.29,42.64,6.13,62.52,8.37l153.05,22.22Z"/></g></g></svg>