<svg xmlns="http://www.w3.org/2000/svg" viewBox="0 0 510 300"><defs><style>.cls-1{fill:#fff;}</style></defs><title>Asset 1</title><g id="Layer_2" data-name="Layer 2"><g id="Layer_1-2" data-name="Layer 1"><path class="cls-1" d="M359,67.22h3a4.56,4.56,0,0,0,4.48-4.63v-58A4.55,4.55,0,0,0,362,0h-3a4.56,4.56,0,0,0-4.48,4.62v58A4.56,4.56,0,0,0,359,67.22Z"/><path class="cls-1" d="M505.38,143.55h-58a4.56,4.56,0,0,0-4.62,4.48v3a4.55,4.55,0,0,0,4.62,4.48h58A4.55,4.55,0,0,0,510,151v-3A4.56,4.56,0,0,0,505.38,143.55Z"/><path class="cls-1" d="M426.18,206.78a4.55,4.55,0,0,0-6.44-.1l-2.12,2.11a4.55,4.55,0,0,0,.11,6.44l41,41a4.56,4.56,0,0,0,6.44.1l2.12-2.12a4.54,4.54,0,0,0-.11-6.43Z"/><path class="cls-1" d="M294.78,92.28a4.56,4.56,0,0,0,6.44.1l2.11-2.11a4.56,4.56,0,0,0-.1-6.44l-41-41a4.56,4.56,0,0,0-6.44-.1l-2.11,2.11a4.55,4.55,0,0,0,.1,6.44Z"/><path class="cls-1" d="M419.74,92.38a4.56,4.56,0,0,0,6.44-.1l41-41a4.55,4.55,0,0,0,.11-6.44l-2.12-2.11a4.56,4.56,0,0,0-6.44.1l-41,41a4.55,4.55,0,0,0-.11,6.44Z"/><path class="cls-1" d="M418.11,126.87a62.51,62.51,0,0,0-111.37-7.61,89.4,89.4,0,0,0-9.43-.49A90.59,90.59,0,0,0,273.24,122a100.49,100.49,0,0,0-164.87,6.37,78,78,0,0,0-38.68,15.81,80.22,80.22,0,0,0-17.35,18.4,78.8,78.8,0,0,0-9.47,18.91A60.58,60.58,0,0,0,57.09,299.9l.91,0c.93,0,1.77.06,2.57.06s1.55,0,2.41-.05h53c1,0,1.78.05,2.56.05s1.59,0,2.55-.05h75.33c.95,0,1.79.05,2.58.05s1.73,0,2.74-.06H294c1.23.05,2.28.07,3.29.07s2.14,0,3.44-.07l1.34-.06h.09a90.63,90.63,0,0,0,85.75-90.49c0-.65,0-1.3-.05-1.95a62.57,62.57,0,0,0,30.23-80.56Zm-216,157.46-.95,0c-.8,0-1.5.05-2.13.05s-1.33,0-2.14-.05H62.49c-.7,0-1.33.05-1.92.05s-1.2,0-1.89-.05l-.74,0a45,45,0,0,1-7.22-88.82l4.55-1L56.53,190a64.09,64.09,0,0,1,115-18.25l3.34,5h0l5.69-2A56.36,56.36,0,0,1,199,171.7a56.36,56.36,0,0,1,3.08,112.63Zm99.29,0-1.23.06c-1.09,0-2,.06-2.85.06s-1.76,0-2.86-.06H243.86c1-.76,1.9-1.56,2.82-2.37l.87-.8c.62-.57,1.23-1.14,1.83-1.73.33-.32.65-.65,1-1,.54-.55,1.08-1.12,1.61-1.69l.95-1.05q.79-.9,1.56-1.83c.27-.34.56-.67.83-1,.6-.75,1.18-1.53,1.75-2.31.16-.21.33-.42.48-.63.71-1,1.4-2,2.06-3.05.19-.29.37-.59.55-.89.47-.75.93-1.51,1.37-2.28.23-.4.44-.8.66-1.2q.57-1,1.11-2.1l.63-1.29c.34-.72.67-1.44,1-2.17.18-.42.37-.84.55-1.27.34-.82.66-1.65,1-2.49.13-.34.27-.67.39-1,.41-1.17.8-2.36,1.16-3.57.07-.23.13-.47.2-.71.28-1,.54-2,.78-3,.1-.43.19-.86.29-1.29.18-.82.35-1.64.5-2.46.09-.48.17-1,.25-1.44.13-.81.25-1.62.35-2.43.06-.48.13-1,.18-1.44.09-.88.17-1.76.23-2.64,0-.42.07-.84.09-1.26.07-1.3.11-2.61.11-3.93a71.62,71.62,0,0,0-5.65-28q-1.37-3.21-3-6.26a72.24,72.24,0,0,0-7.72-11.45c-1.47-1.78-3-3.5-4.69-5.15a71.75,71.75,0,0,0-16.6-12.41q-3-1.65-6.26-3c-1.11-.47-2.23-.91-3.35-1.32A72.4,72.4,0,0,0,190,156.69a70.38,70.38,0,0,0-8.89,1.69q-1.34-1.69-2.75-3.32c-.3-.35-.62-.68-.92-1-.65-.72-1.31-1.44-2-2.14-.37-.39-.76-.76-1.15-1.15-.63-.62-1.26-1.24-1.91-1.84l-1.26-1.14c-.65-.58-1.31-1.14-2-1.7L167.8,145c-.7-.56-1.41-1.1-2.13-1.63-.42-.31-.83-.63-1.26-.93-.82-.58-1.66-1.15-2.51-1.7l-1-.66c-1.19-.76-2.4-1.49-3.63-2.18l-.57-.3c-1-.58-2.09-1.13-3.16-1.66-.43-.22-.87-.41-1.31-.62-.84-.39-1.68-.78-2.54-1.15-.5-.22-1-.42-1.5-.62-.81-.33-1.63-.65-2.45-.95-.53-.2-1.06-.38-1.59-.57-.82-.28-1.65-.55-2.48-.8l-1.59-.48c-.87-.25-1.76-.48-2.64-.7-.5-.12-1-.25-1.49-.36-1.06-.24-2.12-.45-3.19-.65l-1-.2c-1.35-.23-2.71-.43-4.08-.59a85,85,0,0,1,136,7.19l3.34,5,5.69-2a74.84,74.84,0,0,1,37.81-2.94c1.58.28,3.14.61,4.68,1l1.69.44c1.27.34,2.53.73,3.78,1.13.77.26,1.54.51,2.3.79,1.2.43,2.38.9,3.55,1.39s2.13.94,3.17,1.44l.35.17a75.55,75.55,0,0,1,34.76,34.76l.18.36q.75,1.56,1.44,3.18c.48,1.14.94,2.3,1.37,3.47.29.79.55,1.6.81,2.4.36,1.11.7,2.23,1,3.36.19.67.37,1.35.54,2,.36,1.48.68,3,.95,4.48.08.45.17.9.24,1.35.29,1.77.51,3.56.68,5.37.19,2.22.31,4.47.31,6.74A75,75,0,0,1,301.39,284.3ZM386,190.65c-.07-.31-.15-.61-.22-.91-.25-1.14-.51-2.28-.81-3.41-.13-.49-.28-1-.42-1.47-.27-1-.56-2-.87-3-.18-.58-.39-1.16-.58-1.74-.3-.88-.61-1.76-.93-2.63-.24-.62-.49-1.24-.73-1.85s-.41-1.06-.63-1.58c-.13-.32-.28-.62-.42-.93s-.19-.49-.3-.72-.19-.39-.28-.58c-.93-2-1.9-4-3-6-.05-.1-.11-.19-.16-.28-1.09-2-2.26-3.91-3.49-5.79-.1-.16-.2-.32-.31-.48q-1.85-2.79-3.92-5.44c-.2-.27-.41-.53-.62-.8-1.38-1.73-2.81-3.42-4.32-5.06-.05-.06-.1-.13-.16-.19s-.28-.27-.41-.41c-.68-.72-1.35-1.45-2.05-2.15s-1.61-1.56-2.43-2.32c-.17-.15-.33-.31-.49-.47-1.63-1.49-3.32-2.9-5-4.26-.28-.22-.56-.45-.84-.66q-2.62-2-5.39-3.87l-.57-.36c-1.94-1.26-3.92-2.46-5.95-3.57h0q-2.06-1.12-4.18-2.15l-.62-.28c-1.08-.51-2.17-1-3.28-1.48l-.2-.08c-.65-.27-1.3-.51-1.95-.77s-1.58-.63-2.38-.92c-.6-.21-1.2-.4-1.8-.6-.88-.3-1.76-.6-2.64-.87l-.33-.1a47,47,0,1,1,62.7,68.1Z"/></g></g></svg>